<svg width="28" height="30" viewBox="0 0 28 30" fill="none" xmlns="http://www.w3.org/2000/svg">
<path fill-rule="evenodd" clip-rule="evenodd" d="M0.735901 9.375H26.7368C27.1415 9.375 27.4726 9.059 27.4726 8.672V6.56299C27.4726 5.00999 26.1542 3.75 24.5291 3.75H21.5856V0.703003C21.5856 0.316003 21.2545 0 20.8498 0H18.3969C17.9921 0 17.661 0.316003 17.661 0.703003V3.75H9.8117V0.703003C9.8117 0.316003 9.4805 0 9.0758 0H6.6229C6.2181 0 5.887 0.316003 5.887 0.703003V3.75H2.9435C1.3184 3.75 0 5.00999 0 6.56299V8.672C0 9.059 0.331101 9.375 0.735901 9.375ZM26.7368 11.25H0.735901C0.331101 11.25 0 11.566 0 11.953V27.188C0 28.74 1.3184 30 2.9435 30H24.5291C26.1542 30 27.4726 28.74 27.4726 27.188V11.953C27.4726 11.566 27.1415 11.25 26.7368 11.25ZM14.9851 16.783H13.1203V19.714H10.1898V21.579H14.9851V19.714V16.783ZM15.4104 13.373C18.6003 14.11 20.9791 16.966 20.9791 20.38C20.9791 24.352 17.7588 27.573 13.7862 27.573C10.3312 27.573 7.4464 25.136 6.753 21.888C6.6493 21.401 6.5934 20.897 6.5934 20.38C6.5934 20.105 6.6104 19.834 6.6403 19.568C7.0268 16.129 9.8365 13.426 13.3222 13.203C13.4758 13.194 13.6301 13.187 13.7862 13.187C14.3452 13.187 14.8881 13.253 15.4104 13.373ZM9.0297 20.38C9.0297 23.007 11.1592 25.136 13.7862 25.136C16.4132 25.136 18.5428 23.007 18.5428 20.38C18.5428 17.753 16.4132 15.623 13.7862 15.623C11.1592 15.623 9.0297 17.753 9.0297 20.38Z" fill="#E5014D"/>
</svg>
