<svg width="55" height="80" viewBox="0 0 55 80" fill="none" xmlns="http://www.w3.org/2000/svg">
<g clip-path="url(#clip0)">
<path d="M27.1733 9.23923C26.6483 9.24039 26.1346 9.08582 25.6974 8.79507C25.2602 8.50432 24.919 8.09045 24.717 7.6058C24.515 7.12115 24.4613 6.58748 24.5626 6.07228C24.6639 5.55708 24.9157 5.08349 25.2861 4.71139C25.6566 4.3393 26.1291 4.08542 26.6438 3.98185C27.1586 3.87828 27.6925 3.92967 28.178 4.12954C28.6635 4.3294 29.0789 4.66876 29.3716 5.10469C29.6643 5.54062 29.8211 6.05355 29.8222 6.57861C29.8222 7.2827 29.5425 7.95795 29.0447 8.45582C28.5468 8.95369 27.8716 9.23339 27.1675 9.23339L27.1733 9.23923ZM27.1733 5.98216C27.0577 5.98216 26.9446 6.01646 26.8484 6.08071C26.7523 6.14497 26.6773 6.23629 26.6331 6.34314C26.5888 6.44999 26.5772 6.56756 26.5998 6.681C26.6224 6.79443 26.6781 6.89862 26.7598 6.9804C26.8416 7.06218 26.9458 7.11787 27.0592 7.14043C27.1727 7.163 27.2902 7.15142 27.3971 7.10716C27.5039 7.0629 27.5953 6.98795 27.6595 6.89179C27.7238 6.79562 27.7581 6.68257 27.7581 6.56692C27.7581 6.41183 27.6965 6.2631 27.5868 6.15343C27.4771 6.04377 27.3284 5.98216 27.1733 5.98216Z" fill="#333333"/>
<path d="M11.6483 51.9612C11.3754 51.9612 11.1136 51.8527 10.9206 51.6597C10.7276 51.4667 10.6191 51.2049 10.6191 50.932C10.6191 50.659 10.7276 50.3973 10.9206 50.2043C11.1136 50.0113 11.3754 49.9028 11.6483 49.9028H42.687C42.9599 49.9028 43.2217 50.0113 43.4147 50.2043C43.6077 50.3973 43.7161 50.659 43.7161 50.932C43.7161 51.2049 43.6077 51.4667 43.4147 51.6597C43.2217 51.8527 42.9599 51.9612 42.687 51.9612H11.6483Z" fill="#333333"/>
<path d="M11.6483 58.405C11.3754 58.405 11.1136 58.2966 10.9206 58.1036C10.7276 57.9106 10.6191 57.6488 10.6191 57.3758C10.6191 57.1029 10.7276 56.8411 10.9206 56.6481C11.1136 56.4551 11.3754 56.3467 11.6483 56.3467H42.687C42.8221 56.3467 42.956 56.3733 43.0808 56.425C43.2057 56.4767 43.3191 56.5525 43.4147 56.6481C43.5103 56.7437 43.5861 56.8571 43.6378 56.982C43.6895 57.1069 43.7161 57.2407 43.7161 57.3758C43.7161 57.511 43.6895 57.6448 43.6378 57.7697C43.5861 57.8946 43.5103 58.008 43.4147 58.1036C43.3191 58.1991 43.2057 58.2749 43.0808 58.3267C42.956 58.3784 42.8221 58.405 42.687 58.405H11.6483Z" fill="#333333"/>
<path d="M11.6483 64.8432C11.3754 64.8432 11.1136 64.7348 10.9206 64.5418C10.7276 64.3488 10.6191 64.087 10.6191 63.8141C10.6191 63.5411 10.7276 63.2794 10.9206 63.0863C11.1136 62.8933 11.3754 62.7849 11.6483 62.7849H42.687C42.9599 62.7849 43.2217 62.8933 43.4147 63.0863C43.6077 63.2794 43.7161 63.5411 43.7161 63.8141C43.7161 64.087 43.6077 64.3488 43.4147 64.5418C43.2217 64.7348 42.9599 64.8432 42.687 64.8432H11.6483Z" fill="#333333"/>
<path d="M2.1168 80C1.55587 79.9985 1.01835 79.7749 0.621702 79.3783C0.225059 78.9817 0.00154316 78.4441 0 77.8832V10.1747C0.00154316 9.61376 0.225059 9.07624 0.621702 8.67959C1.01835 8.28295 1.55587 8.05944 2.1168 8.05789H12.9172V6.95271C12.9172 6.67976 13.0256 6.41799 13.2186 6.22498C13.4116 6.03197 13.6734 5.92355 13.9464 5.92355H20.3786V5.77736C20.6386 4.16448 21.4648 2.69702 22.709 1.63824C23.9532 0.579456 25.5339 -0.00135436 27.1676 2.37155e-06H27.6939C29.2339 0.110244 30.6902 0.743032 31.8216 1.79364C32.953 2.84425 33.6918 4.24969 33.9157 5.77736V5.92355H40.4006C40.672 5.92355 40.9322 6.03136 41.1242 6.22327C41.3161 6.41518 41.4239 6.67546 41.4239 6.94686V8.05204H52.2243C52.7857 8.05358 53.3239 8.27691 53.7214 8.67339C54.119 9.06986 54.3438 9.60738 54.3469 10.1688V77.8832C54.3454 78.4451 54.121 78.9835 53.7231 79.3804C53.3252 79.7772 52.7862 80 52.2243 80H2.1168ZM2.05833 77.9475H52.2886V10.1162H41.4239V12.4845H49.0607C49.3321 12.4845 49.5924 12.5923 49.7843 12.7842C49.9762 12.9761 50.0841 13.2364 50.0841 13.5078V74.6963C50.0841 74.9682 49.9764 75.2291 49.7847 75.422C49.593 75.6148 49.3327 75.7239 49.0607 75.7255H5.26277C5.12762 75.7255 4.99379 75.6988 4.86893 75.6471C4.74407 75.5954 4.63061 75.5196 4.53504 75.424C4.43948 75.3285 4.36367 75.215 4.31195 75.0901C4.26023 74.9653 4.23361 74.8314 4.23361 74.6963V13.5136C4.23361 13.2407 4.34204 12.9789 4.53504 12.7859C4.72805 12.5929 4.98982 12.4845 5.26277 12.4845H12.9172V10.1162H2.05833V77.9475ZM6.31533 73.6788H48.0316V14.5428H41.4239V16.9578C41.4239 17.2292 41.3161 17.4895 41.1242 17.6814C40.9322 17.8733 40.672 17.9811 40.4006 17.9811H13.9464C13.8115 17.9819 13.6778 17.956 13.5529 17.9049C13.4281 17.8539 13.3146 17.7786 13.219 17.6835C13.1233 17.5884 13.0474 17.4753 12.9956 17.3508C12.9438 17.2263 12.9172 17.0927 12.9172 16.9578V14.5428H6.31533V73.6788ZM14.9755 15.9637H39.3714V7.98187H32.9684C32.6954 7.98187 32.4336 7.87345 32.2406 7.68044C32.0476 7.48743 31.9392 7.22566 31.9392 6.95271V6.82991C31.8959 5.59409 31.3745 4.42333 30.485 3.56437C29.5954 2.70541 28.4071 2.22534 27.1705 2.22534C25.9339 2.22534 24.7457 2.70541 23.8561 3.56437C22.9665 4.42333 22.4452 5.59409 22.4019 6.82991V6.95271C22.4026 7.08709 22.3769 7.22031 22.3262 7.34476C22.2755 7.46921 22.2008 7.58245 22.1063 7.67802C22.0118 7.77359 21.8994 7.84961 21.7756 7.90175C21.6517 7.95388 21.5188 7.98111 21.3844 7.98187H14.9521L14.9755 15.9637Z" fill="#333333"/>
<path d="M27.7465 33.4714C26.4559 33.4714 25.1942 33.0886 24.121 32.3716C23.0478 31.6545 22.2114 30.6353 21.7175 29.4428C21.2235 28.2504 21.0943 26.9383 21.3461 25.6724C21.5979 24.4065 22.2194 23.2437 23.1321 22.3311C24.0447 21.4184 25.2075 20.7969 26.4734 20.5451C27.7393 20.2933 29.0514 20.4225 30.2439 20.9164C31.4363 21.4104 32.4555 22.2468 33.1726 23.32C33.8897 24.3931 34.2724 25.6548 34.2724 26.9455C34.2708 28.6758 33.5828 30.3348 32.3593 31.5583C31.1358 32.7818 29.4768 33.4698 27.7465 33.4714ZM27.7465 22.4663C26.8606 22.4663 25.9946 22.729 25.258 23.2212C24.5214 23.7134 23.9473 24.4129 23.6083 25.2314C23.2693 26.0499 23.1806 26.9505 23.3534 27.8194C23.5262 28.6882 23.9528 29.4864 24.5793 30.1128C25.2057 30.7392 26.0038 31.1658 26.8727 31.3387C27.7416 31.5115 28.6422 31.4228 29.4607 31.0838C30.2791 30.7447 30.9787 30.1706 31.4709 29.434C31.963 28.6974 32.2258 27.8314 32.2258 26.9455C32.2242 25.758 31.7518 24.6196 30.9121 23.78C30.0724 22.9403 28.934 22.4679 27.7465 22.4663Z" fill="#E5014D"/>
<path d="M37.4243 45.0612H18.1275C17.4921 45.0596 16.8832 44.8065 16.4339 44.3573C15.9846 43.908 15.7315 43.2991 15.73 42.6637V41.2895C15.73 36.7343 23.7002 34.7637 27.7642 34.7637C31.8282 34.7637 39.7633 36.7284 39.8042 41.272V42.6871C39.7966 43.3154 39.5433 43.9157 39.0984 44.3594C38.6536 44.8032 38.0526 45.0551 37.4243 45.0612ZM27.7466 36.8395C23.8171 36.8395 17.7591 38.7634 17.7591 41.3188V42.6871C17.7591 42.7801 17.796 42.8694 17.8618 42.9352C17.9276 43.001 18.0169 43.0379 18.1099 43.0379H37.4243C37.5174 43.0379 37.6066 43.001 37.6724 42.9352C37.7382 42.8694 37.7752 42.7801 37.7752 42.6871V41.2778C37.7401 38.7341 31.6703 36.8395 27.7466 36.8395Z" fill="#E5014D"/>
</g>
<defs>
<clipPath id="clip0">
<rect width="54.3469" height="80" fill="white"/>
</clipPath>
</defs>
</svg>
