<svg width="500" height="500" xmlns="http://www.w3.org/2000/svg">
 <style type="text/css">.st0{fill:#2E3842;}
	.st1{fill:#E40051;}</style>

 <g>
  <title>background</title>
  <rect x="-1" y="-1" width="502" height="502" id="canvas_background" fill="none"/>
 </g>
 <g>
  <title>Layer 1</title>
  <ellipse stroke="#000" ry="40" rx="40" id="svg_12" cy="460" cx="162.3356" stroke-width="0" fill="#ffffff"/>
  <rect stroke="#000" id="svg_8" height="407.00001" width="36.000001" y="38.453115" x="440.499999" stroke-opacity="null" stroke-width="0" fill="#ffffff"/>
  <rect stroke="#000" id="svg_7" height="407.00001" width="36.000001" y="33.453115" x="20.499999" stroke-opacity="null" stroke-width="0" fill="#ffffff"/>
  <rect stroke="#000" id="svg_5" height="437.000025" width="411.000021" y="22.453117" x="50.499979" stroke-opacity="null" stroke-width="0" fill="#ffffff"/>
  <rect stroke="#000" id="svg_10" height="20.332802" width="311.991824" y="454.654753" x="90.504179" stroke-opacity="null" stroke-width="0" fill="#ffffff"/>
  <g stroke="null" id="svg_1">
   <path stroke="null" class="st0" d="m264.53406,397.661842c0.10047,0.382284 0.20094,0.668985 0.20094,1.051259c0.50234,1.911381 1.10515,3.822751 2.00937,5.925269c10.54921,25.039026 32.95373,42.241412 60.08028,47.59327l76.95901,0c39.58466,0 71.73465,-30.582021 71.73465,-68.236133l0,-292.153871c0,-37.654112 -32.14998,-68.236133 -71.73465,-68.236133l-307.23325,0c-39.58466,0 -71.73464,30.582021 -71.73464,68.236133l0,292.153871c0,37.654112 32.14998,68.236133 71.73464,68.236133l47.42122,0c-0.20094,16.055564 -0.3014,23.987777 -0.3014,23.701066l-47.11982,0c-53.2484,0 -96.55041,-41.190163 -96.55041,-91.841635l0,-292.249435c0,-50.651473 43.30201,-91.841635 96.55041,-91.841635l307.13278,0c53.24841,0 96.55041,41.190163 96.55041,91.841635l0,292.153871c0,50.651473 -43.302,91.841635 -96.55041,91.841635l-57.46809,-0.286711c-47.22028,0.860122 -88.11104,-24.847889 -100.36822,-68.140569c-0.70328,-2.580355 -1.6075,-4.969574 -2.51171,-7.358792l-2.81313,-2.484792c-6.63093,-5.925269 -13.26186,-11.850538 -19.99327,-17.58466c-8.94171,-7.645513 -17.88342,-15.195442 -26.92561,-22.745381c-4.42062,-3.631614 -8.84124,-7.263229 -13.26186,-10.894843c-7.13328,-5.925269 -14.36703,-11.850538 -21.39983,-17.871371c-11.65437,-9.939157 -20.39515,-17.680234 -28.43264,-25.230173c-9.74547,-9.079036 -18.08437,-18.92262 -24.81577,-29.244051c-9.44406,-14.430893 -15.37171,-30.582021 -17.68249,-47.975544c-0.60281,-4.682873 -0.90422,-9.365746 -1.20562,-13.857482c-0.10047,-1.815807 -0.20094,-3.631614 -0.40188,-5.542995c-0.70328,-8.983462 0.10047,-18.158071 2.31078,-27.237107c3.41594,-13.857482 9.9464,-26.185858 19.49093,-36.50729c13.1614,-14.33532 29.63826,-23.414356 49.02872,-27.33268l0,0.191137c2.61219,-0.573411 5.42531,-1.146822 8.13796,-1.529106c16.57734,-2.198081 32.35092,0.382284 48.72732,8.027787c3.61687,1.720234 7.53515,2.867066 11.65437,4.013888c2.21031,0.668985 4.52109,1.337959 6.7314,2.102518c7.83656,2.675919 19.59139,6.689817 17.98389,18.731483c-0.90422,6.49868 -7.33421,13.188498 -13.06093,16.151137c-9.04218,4.682863 -20.09374,-0.191147 -25.31811,-11.277127c-5.72671,-12.041665 -14.96983,-18.349208 -28.43264,-19.304894c-1.70796,-0.095573 -3.41593,-0.191147 -5.1239,-0.191147c-6.12859,0 -21.09842,1.051259 -33.85795,9.174609l0,0.286711c-7.33421,3.631614 -13.86468,8.505624 -19.69186,14.908731c-7.13328,7.741076 -12.05624,16.915685 -14.56796,27.428254c-1.70797,6.976518 -2.31078,14.048609 -1.80844,20.834c0.10047,1.911381 0.30141,3.822751 0.40188,5.734132c0.3014,4.396163 0.50234,8.410051 1.10515,12.519513c1.90891,14.33532 6.73141,27.619391 14.4675,39.374356c5.82718,8.792325 12.96046,17.29795 21.50029,25.325736c7.73609,7.263229 16.27593,14.813158 27.62889,24.465615c6.93234,5.925269 14.06562,11.754965 21.09843,17.58466c4.42062,3.631614 8.84124,7.358802 13.36233,10.990416c9.14266,7.549939 18.18484,15.195442 27.22702,22.936518c5.72671,4.969574 11.45343,9.939157 17.07968,15.004305c4.32015,-3.822761 8.6403,-7.645513 12.96046,-11.468264c5.32484,-4.682873 10.75015,-9.270173 16.17546,-13.857472c7.23374,-6.116406 14.46749,-12.041675 21.70123,-18.062508l9.44406,-7.741076c5.62625,-4.58731 11.15202,-9.174609 16.6778,-13.857482l1.80844,-1.529097c7.53515,-6.307543 15.27124,-12.901797 22.40452,-19.591614c5.32484,-4.874 10.75015,-10.512569 16.6778,-17.106812c9.14265,-10.225868 15.77358,-21.311848 19.79233,-33.066812c4.62156,-13.475198 6.63093,-28.383939 6.12859,-45.681889c-0.20094,-7.263238 -1.70797,-14.33533 -4.42062,-21.025147c-4.52109,-11.181543 -11.2525,-19.973878 -20.19421,-26.854833l0,0c-13.76421,-15.099878 -35.06357,-16.628975 -42.79966,-16.628975c-1.70797,0 -3.41594,0.095564 -5.1239,0.191137c-13.46281,0.955685 -22.8064,7.263229 -28.43264,19.304904c-5.22437,11.08598 -16.27593,15.95999 -25.31811,11.277117c-5.62625,-2.96263 -12.15671,-9.652447 -13.06093,-16.151127c-1.6075,-12.041675 10.14734,-16.055564 17.98389,-18.731492c2.21031,-0.764548 4.42062,-1.433533 6.73141,-2.102508c4.11921,-1.242396 8.03749,-2.389228 11.65436,-4.013898c16.3764,-7.741066 32.04951,-10.321432 48.72732,-8.027777c10.14733,1.337959 19.28998,4.300599 27.32748,8.505624c20.39514,9.652447 34.9631,24.943462 43.40247,45.586325c3.61688,8.887899 5.62625,18.444782 5.92766,28.097229c0.60281,19.687178 -1.70797,37.080701 -7.23375,52.849554c-4.92296,14.33533 -12.96046,27.906102 -24.01202,40.234477c-6.32952,7.167655 -12.25718,13.188498 -18.08436,18.635919c-7.53515,6.976518 -15.47218,13.761909 -23.20827,20.260589l-1.80843,1.529097c-5.62625,4.778447 -11.2525,9.46132 -16.97921,14.048619l-9.34359,7.741076c-7.23374,6.020833 -14.36702,11.946102 -21.60077,17.966934c-5.32484,4.491736 -10.64968,9.079036 -15.87405,13.570772c-5.32484,4.87401 -10.64968,9.556883 -15.97452,14.33532l0,0z" id="svg_2"/>
   <path stroke="null" class="st1" d="m162.25693,496.002157c-19.18952,0 -34.66169,-14.526457 -34.66169,-32.493391s15.47217,-32.493401 34.66169,-32.493401s34.6617,14.526457 34.6617,32.493401s-15.57265,32.493391 -34.6617,32.493391l0,0z" id="svg_3"/>
  </g>
 </g>
</svg>