<svg width="50" height="50" viewBox="0 0 50 50" fill="none" xmlns="http://www.w3.org/2000/svg">
<path d="M26.3618 39.8235C26.3657 39.8593 26.3657 39.8954 26.3618 39.9312C26.417 40.1477 26.4854 40.3606 26.5665 40.5687C27.0214 41.7681 27.7664 42.833 28.7335 43.6661C29.7005 44.4992 30.8587 45.0739 32.1022 45.3376H39.1855C40.9585 45.3157 42.6504 44.5832 43.8895 43.3009C45.1286 42.0186 45.8136 40.2914 45.7939 38.4988V9.19833C45.8037 8.31111 45.6405 7.43065 45.3136 6.60721C44.9868 5.78378 44.5027 5.0335 43.889 4.39922C43.2754 3.76495 42.5442 3.2591 41.7371 2.91056C40.9301 2.56202 40.0631 2.37762 39.1855 2.36789H10.8931C10.0155 2.37762 9.14851 2.56202 8.34148 2.91056C7.53445 3.2591 6.80323 3.76495 6.18957 4.39922C5.57591 5.0335 5.09184 5.78378 4.76499 6.60721C4.43814 7.43065 4.27493 8.31111 4.28466 9.19833V38.4575C4.265 40.25 4.94996 41.9772 6.18907 43.2595C7.42818 44.5418 9.12008 45.2743 10.8931 45.2962H15.2577C15.2577 46.9024 15.2577 47.6972 15.2577 47.6641H10.9176C9.7347 47.6522 8.56567 47.4048 7.4773 46.9361C6.38893 46.4674 5.40254 45.7865 4.57445 44.9323C3.74635 44.0782 3.09278 43.0675 2.65105 41.9579C2.20932 40.8484 1.98808 39.6617 1.99997 38.4657V9.19833C1.97593 6.78715 2.89864 4.46475 4.56576 2.74041C6.23287 1.01608 8.50831 0.0305667 10.8931 0L39.1774 0C41.5621 0.0305667 43.8375 1.01608 45.5047 2.74041C47.1718 4.46475 48.0945 6.78715 48.0704 9.19833V38.4575C48.0945 40.8686 47.1718 43.191 45.5047 44.9154C43.8375 46.6397 41.5621 47.6252 39.1774 47.6558H33.8874C31.8043 47.7665 29.7472 47.1475 28.063 45.9032C26.3789 44.659 25.1706 42.8655 24.6421 40.8253C24.5766 40.5687 24.4947 40.3286 24.4129 40.0885L24.1508 39.8401C23.5366 39.2523 22.9307 38.6562 22.3083 38.0849C21.4894 37.3149 20.6705 36.5615 19.8517 35.7998L18.607 34.6904C17.9519 34.0943 17.2886 33.4981 16.6416 32.8937C15.5607 31.9002 14.7582 31.1303 14.0212 30.41C13.1442 29.5309 12.3769 28.5466 11.7365 27.4791C10.8536 26.0169 10.2949 24.3786 10.0987 22.6771C10.0414 22.2051 10.0169 21.7415 9.9841 21.2861C9.9841 21.1123 9.9841 20.9301 9.9841 20.7314C9.91424 19.8045 9.98326 18.8722 10.1888 17.9661C10.4805 16.616 11.0964 15.3592 11.9822 14.3067C13.1386 12.9192 14.7213 11.9631 16.4779 11.5911V11.5911C16.7264 11.5287 16.9778 11.4789 17.2312 11.442C18.7761 11.2272 20.3485 11.5173 21.7187 12.27C22.0654 12.4308 22.4241 12.5637 22.7915 12.6674C22.9962 12.7336 23.2091 12.7998 23.4138 12.8826C24.1344 13.1476 25.2154 13.5533 25.0516 14.7538C24.9794 15.1006 24.8347 15.4278 24.627 15.7135C24.4194 15.9991 24.1537 16.2364 23.8478 16.4096C23.0289 16.8733 21.9971 16.4096 21.514 15.2754C21.3175 14.7277 20.964 14.2518 20.4988 13.9082C20.0335 13.5646 19.4775 13.3689 18.9018 13.3463H18.4268C17.3214 13.3452 16.2387 13.6641 15.3069 14.2653V14.2653C14.5115 14.7021 13.8184 15.3067 13.2744 16.0381C12.7305 16.7694 12.3484 17.6105 12.1541 18.5043C12 19.1881 11.9421 19.8905 11.9822 20.5907C11.9822 20.7811 11.9822 20.9715 11.9822 21.1619C11.9822 21.6008 12.0313 21.9899 12.0804 22.4204C12.265 23.8017 12.7367 25.1278 13.4644 26.3117C14.0293 27.2283 14.694 28.0781 15.4461 28.8452C16.1585 29.5737 16.9446 30.3354 17.9928 31.329C18.6315 31.9251 19.2866 32.5129 19.9336 33.0925C20.343 33.4567 20.7524 33.8293 21.1619 34.1936C21.9808 34.947 22.8406 35.717 23.6677 36.487L25.2481 37.9938L26.4355 36.843L27.9259 35.4603L29.924 33.6472L30.792 32.8689C31.3161 32.4135 31.8238 31.9499 32.3315 31.4863L32.4953 31.329C33.1913 30.6997 33.9037 30.0374 34.5588 29.3668C35.0502 28.8783 35.5497 28.3153 36.0983 27.6529C36.9142 26.6796 37.5345 25.5547 37.9245 24.3412C38.3622 22.8602 38.5504 21.3152 38.4813 19.771C38.4644 19.0496 38.3288 18.3361 38.08 17.6598C37.7062 16.615 37.0647 15.6893 36.2212 14.9773C35.7233 14.4277 35.117 13.9898 34.4414 13.6917C33.7657 13.3937 33.0358 13.2422 32.2987 13.2469H31.832C31.2551 13.2691 30.6978 13.4644 30.2311 13.8079C29.7644 14.1515 29.4095 14.6277 29.2115 15.176C28.7284 16.2854 27.713 16.7739 26.8777 16.3103C26.5738 16.1346 26.3096 15.8965 26.1023 15.6113C25.895 15.3261 25.749 15.0001 25.6739 14.6544C25.5265 13.4539 26.6075 13.0482 27.3117 12.7833L27.9341 12.568C28.3035 12.4874 28.6674 12.3823 29.0232 12.2534C30.1038 11.6726 31.3104 11.373 32.5342 11.3817C33.758 11.3904 34.9604 11.707 36.0328 12.3031C37.8953 13.248 39.3263 14.8816 40.029 16.865C40.3609 17.7669 40.5435 18.718 40.5695 19.6799C40.6527 21.469 40.4283 23.259 39.9062 24.9704C39.428 26.4397 38.6715 27.8007 37.6788 28.9776C37.0974 29.6979 36.5487 30.294 36.041 30.8405C35.345 31.5442 34.6162 32.2231 33.9037 32.8689L33.7318 33.0262C33.2159 33.5064 32.7 33.9701 32.1677 34.4337L31.3079 35.2037L29.318 37.0086C28.8266 37.4557 28.3435 37.9193 27.8604 38.3664C27.3772 38.8135 26.8777 39.3268 26.3864 39.7987L26.3618 39.8235Z" fill="white"/>
<path d="M16.9449 49.676C16.3074 49.6809 15.6828 49.4943 15.1503 49.1398C14.6179 48.7853 14.2016 48.2788 13.9542 47.6847C13.7069 47.0906 13.6396 46.4356 13.761 45.8028C13.8824 45.17 14.187 44.588 14.636 44.1304C15.0851 43.6729 15.6585 43.3605 16.2834 43.2329C16.9084 43.1054 17.5567 43.1683 18.1462 43.4139C18.7357 43.6594 19.2397 44.0764 19.5945 44.612C19.9492 45.1476 20.1386 45.7777 20.1386 46.4223C20.1407 46.8481 20.0598 47.2701 19.9004 47.6643C19.7409 48.0584 19.5062 48.4168 19.2095 48.7191C18.9128 49.0213 18.5601 49.2614 18.1715 49.4257C17.7829 49.5899 17.3661 49.6749 16.9449 49.676V49.676Z" fill="#E5014D"/>
</svg>
