<svg width="570" height="190" xmlns="http://www.w3.org/2000/svg" xmlns:xlink="http://www.w3.org/1999/xlink" preserveAspectRatio="xMidYMid meet">
 <defs>
  <path id="c1jVq47Z2B" d="m127.35,386.03c0.18,0.72 0.4,1.45 0.72,2.25c3.81,9.49 11.89,16.01 21.67,18.04c2.78,0 24.99,0 27.76,0c14.28,0 25.88,-11.59 25.88,-25.87c0,-11.08 0,-99.71 0,-110.79c0,-14.28 -11.6,-25.87 -25.88,-25.87c-11.08,0 -99.74,0 -110.82,0c-14.28,0 -25.87,11.59 -25.87,25.87c0,11.08 0,99.71 0,110.79c0,14.28 11.59,25.87 25.87,25.87c1.71,0 15.4,0 17.11,0c-0.08,6.09 -0.11,9.1 -0.11,8.99c-1.7,0 -15.3,0 -17,0c-19.21,0 -34.82,-15.62 -34.82,-34.83c0,-11.08 0,-99.74 0,-110.82c0,-19.2 15.61,-34.82 34.82,-34.82c11.08,0 99.71,0 110.79,0c19.2,0 34.82,15.62 34.82,34.82c0,11.08 0,99.71 0,110.79c0,19.21 -15.62,34.83 -34.82,34.83c-2.08,-0.02 -18.66,-0.1 -20.73,-0.11c-17.03,0.32 -31.78,-9.43 -36.21,-25.84c-0.25,-0.98 -0.58,-1.89 -0.9,-2.79c-0.1,-0.1 -0.91,-0.85 -1.02,-0.95c-2.39,-2.24 -4.78,-4.49 -7.21,-6.66c-3.22,-2.9 -6.45,-5.77 -9.71,-8.63c-1.59,-1.38 -3.19,-2.75 -4.78,-4.13c-2.58,-2.25 -5.19,-4.49 -7.72,-6.78c-4.21,-3.77 -7.36,-6.7 -10.26,-9.56c-3.51,-3.45 -6.52,-7.18 -8.95,-11.09c-3.41,-5.48 -5.55,-11.6 -6.38,-18.2c-0.22,-1.77 -0.32,-3.55 -0.43,-5.25c-0.04,-0.69 -0.08,-1.38 -0.15,-2.1c-0.25,-3.41 0.04,-6.89 0.84,-10.33c1.23,-5.26 3.58,-9.93 7.03,-13.85c4.74,-5.43 10.69,-8.87 17.68,-10.36c0,0.01 0,0.07 0,0.07c0.94,-0.21 1.96,-0.43 2.94,-0.58c5.98,-0.83 11.67,0.15 17.57,3.05c1.31,0.65 2.72,1.08 4.21,1.52c0.79,0.25 1.63,0.51 2.42,0.8c2.83,1.01 7.07,2.53 6.49,7.1c-0.32,2.46 -2.64,5 -4.71,6.12c-3.26,1.78 -7.25,-0.07 -9.13,-4.27c-2.07,-4.57 -5.4,-6.96 -10.26,-7.32c-0.61,-0.04 -1.23,-0.08 -1.85,-0.08c-2.21,0 -7.61,0.4 -12.21,3.48c0,0.01 0,0.1 0,0.11c-2.64,1.38 -5,3.23 -7.1,5.66c-2.58,2.93 -4.35,6.41 -5.26,10.4c-0.61,2.64 -0.83,5.32 -0.65,7.9c0.04,0.72 0.11,1.45 0.15,2.17c0.1,1.67 0.18,3.19 0.39,4.75c0.69,5.43 2.43,10.47 5.22,14.93c2.1,3.33 4.68,6.56 7.76,9.6c2.79,2.76 5.87,5.62 9.96,9.28c2.5,2.25 5.08,4.46 7.61,6.67c1.6,1.38 3.19,2.79 4.82,4.17c3.3,2.86 6.56,5.76 9.83,8.69c2.06,1.89 4.13,3.77 6.16,5.69c1.55,-1.45 3.11,-2.9 4.67,-4.34c1.92,-1.78 3.88,-3.52 5.84,-5.26c2.61,-2.32 5.21,-4.57 7.82,-6.85c0.34,-0.29 3.07,-2.64 3.41,-2.93c2.03,-1.74 4.02,-3.48 6.02,-5.26c0.06,-0.06 0.58,-0.52 0.65,-0.58c2.72,-2.39 5.51,-4.89 8.08,-7.43c1.92,-1.85 3.88,-3.98 6.02,-6.49c3.29,-3.87 5.69,-8.08 7.14,-12.53c1.66,-5.11 2.39,-10.77 2.21,-17.33c-0.08,-2.75 -0.62,-5.43 -1.6,-7.97c-1.63,-4.24 -4.06,-7.57 -7.28,-10.18c0,0 0,0 0,0c-4.97,-5.73 -12.65,-6.31 -15.44,-6.31c-0.62,0 -1.23,0.04 -1.85,0.07c-4.86,0.37 -8.23,2.76 -10.26,7.32c-1.88,4.21 -5.87,6.06 -9.13,4.28c-2.03,-1.12 -4.38,-3.66 -4.71,-6.12c-0.58,-4.57 3.66,-6.09 6.49,-7.11c0.8,-0.29 1.59,-0.54 2.43,-0.79c1.48,-0.48 2.9,-0.91 4.2,-1.53c5.91,-2.93 11.56,-3.91 17.58,-3.04c3.66,0.51 6.95,1.63 9.85,3.22c7.36,3.66 12.62,9.46 15.66,17.29c1.3,3.37 2.03,7 2.14,10.66c0.21,7.46 -0.62,14.06 -2.61,20.04c-1.78,5.43 -4.68,10.58 -8.66,15.25c-2.29,2.72 -4.42,5 -6.53,7.07c-2.71,2.65 -5.58,5.22 -8.37,7.68c-0.06,0.06 -0.58,0.52 -0.65,0.58c-2.03,1.81 -4.06,3.59 -6.12,5.33c-0.34,0.29 -3.04,2.64 -3.38,2.94c-2.6,2.28 -5.18,4.53 -7.79,6.81c-1.92,1.7 -3.84,3.44 -5.72,5.14c-1.92,1.85 -3.84,3.63 -5.76,5.44c0,0 0,0 0,0c0.04,0.17 0.07,0.3 0.07,0.4z"/>
  <path id="cz6gR2dP2" d="m77.88,410.6c0,-6.81 5.58,-12.32 12.5,-12.32c6.92,0 12.51,5.51 12.51,12.32c0,6.81 -5.62,12.32 -12.51,12.32c0,0 0,0 0,0c-8.33,-3.67 -12.5,-7.78 -12.5,-12.32z"/>
  <path id="cwNlAa1IF" d="m127.35,386.03c0.18,0.72 0.4,1.45 0.72,2.25c3.81,9.49 11.89,16.01 21.67,18.04c2.78,0 24.99,0 27.76,0c14.28,0 25.88,-11.59 25.88,-25.87c0,-11.08 0,-99.71 0,-110.79c0,-14.28 -11.6,-25.87 -25.88,-25.87c-11.08,0 -99.74,0 -110.82,0c-14.28,0 -25.87,11.59 -25.87,25.87c0,11.08 0,99.71 0,110.79c0,14.28 11.59,25.87 25.87,25.87c1.71,0 15.4,0 17.11,0c-0.08,6.09 -0.11,9.1 -0.11,8.99c-1.7,0 -15.3,0 -17,0c-19.21,0 -34.82,-15.62 -34.82,-34.83c0,-11.08 0,-99.74 0,-110.82c0,-19.2 15.61,-34.82 34.82,-34.82c11.08,0 99.71,0 110.79,0c19.2,0 34.82,15.62 34.82,34.82c0,11.08 0,99.71 0,110.79c0,19.21 -15.62,34.83 -34.82,34.83c-2.08,-0.02 -18.66,-0.1 -20.73,-0.11c-17.03,0.32 -31.78,-9.43 -36.21,-25.84c-0.25,-0.98 -0.58,-1.89 -0.9,-2.79c-0.1,-0.1 -0.91,-0.85 -1.02,-0.95c-2.39,-2.24 -4.78,-4.49 -7.21,-6.66c-3.22,-2.9 -6.45,-5.77 -9.71,-8.63c-1.59,-1.38 -3.19,-2.75 -4.78,-4.13c-2.58,-2.25 -5.19,-4.49 -7.72,-6.78c-4.21,-3.77 -7.36,-6.7 -10.26,-9.56c-3.51,-3.45 -6.52,-7.18 -8.95,-11.09c-3.41,-5.48 -5.55,-11.6 -6.38,-18.2c-0.22,-1.77 -0.32,-3.55 -0.43,-5.25c-0.04,-0.69 -0.08,-1.38 -0.15,-2.1c-0.25,-3.41 0.04,-6.89 0.84,-10.33c1.23,-5.26 3.58,-9.93 7.03,-13.85c4.74,-5.43 10.69,-8.87 17.68,-10.36c0,0.01 0,0.07 0,0.07c0.94,-0.21 1.96,-0.43 2.94,-0.58c5.98,-0.83 11.67,0.15 17.57,3.05c1.31,0.65 2.72,1.08 4.21,1.52c0.79,0.25 1.63,0.51 2.42,0.8c2.83,1.01 7.07,2.53 6.49,7.1c-0.32,2.46 -2.64,5 -4.71,6.12c-3.26,1.78 -7.25,-0.07 -9.13,-4.27c-2.07,-4.57 -5.4,-6.96 -10.26,-7.32c-0.61,-0.04 -1.23,-0.08 -1.85,-0.08c-2.21,0 -7.61,0.4 -12.21,3.48c0,0.01 0,0.1 0,0.11c-2.64,1.38 -5,3.23 -7.1,5.66c-2.58,2.93 -4.35,6.41 -5.26,10.4c-0.61,2.64 -0.83,5.32 -0.65,7.9c0.04,0.72 0.11,1.45 0.15,2.17c0.1,1.67 0.18,3.19 0.39,4.75c0.69,5.43 2.43,10.47 5.22,14.93c2.1,3.33 4.68,6.56 7.76,9.6c2.79,2.76 5.87,5.62 9.96,9.28c2.5,2.25 5.08,4.46 7.61,6.67c1.6,1.38 3.19,2.79 4.82,4.17c3.3,2.86 6.56,5.76 9.83,8.69c2.06,1.89 4.13,3.77 6.16,5.69c1.55,-1.45 3.11,-2.9 4.67,-4.34c1.92,-1.78 3.88,-3.52 5.84,-5.26c2.61,-2.32 5.21,-4.57 7.82,-6.85c0.34,-0.29 3.07,-2.64 3.41,-2.93c2.03,-1.74 4.02,-3.48 6.02,-5.26c0.06,-0.06 0.58,-0.52 0.65,-0.58c2.72,-2.39 5.51,-4.89 8.08,-7.43c1.92,-1.85 3.88,-3.98 6.02,-6.49c3.29,-3.87 5.69,-8.08 7.14,-12.53c1.66,-5.11 2.39,-10.77 2.21,-17.33c-0.08,-2.75 -0.62,-5.43 -1.6,-7.97c-1.63,-4.24 -4.06,-7.57 -7.28,-10.18c0,0 0,0 0,0c-4.97,-5.73 -12.65,-6.31 -15.44,-6.31c-0.62,0 -1.23,0.04 -1.85,0.07c-4.86,0.37 -8.23,2.76 -10.26,7.32c-1.88,4.21 -5.87,6.06 -9.13,4.28c-2.03,-1.12 -4.38,-3.66 -4.71,-6.12c-0.58,-4.57 3.66,-6.09 6.49,-7.11c0.8,-0.29 1.59,-0.54 2.43,-0.79c1.48,-0.48 2.9,-0.91 4.2,-1.53c5.91,-2.93 11.56,-3.91 17.58,-3.04c3.66,0.51 6.95,1.63 9.85,3.22c7.36,3.66 12.62,9.46 15.66,17.29c1.3,3.37 2.03,7 2.14,10.66c0.21,7.46 -0.62,14.06 -2.61,20.04c-1.78,5.43 -4.68,10.58 -8.66,15.25c-2.29,2.72 -4.42,5 -6.53,7.07c-2.71,2.65 -5.58,5.22 -8.37,7.68c-0.06,0.06 -0.58,0.52 -0.65,0.58c-2.03,1.81 -4.06,3.59 -6.12,5.33c-0.34,0.29 -3.04,2.64 -3.38,2.94c-2.6,2.28 -5.18,4.53 -7.79,6.81c-1.92,1.7 -3.84,3.44 -5.72,5.14c-1.92,1.85 -3.84,3.63 -5.76,5.44c0,0 0,0 0,0c0.04,0.17 0.07,0.3 0.07,0.4z"/>
  <path id="c2PmE0TJbQ" d="m77.88,410.6c0,-6.81 5.58,-12.32 12.5,-12.32c6.92,0 12.51,5.51 12.51,12.32c0,6.81 -5.59,12.32 -12.51,12.32c0,0 0,0 0,0c-8.33,-3.67 -12.5,-7.78 -12.5,-12.32z"/>
  <path id="a1zXwcAcxx" d="m292.86,372.8c5.76,-3.22 10.18,-7.79 13.3,-13.7c3.11,-5.94 4.67,-12.79 4.67,-20.62c0,-0.41 0,-3.72 0,-4.13c0,-7.68 -1.56,-14.53 -4.64,-20.51c-3.08,-5.98 -7.46,-10.58 -13.12,-13.81c-5.65,-3.26 -12.1,-4.85 -19.38,-4.85c-1.63,0 -9.75,0 -24.36,0l0,82.44l23.74,0l0,0c9.35,-1.06 15.94,-2.67 19.79,-4.82zm-2.25,-59c3.88,4.71 5.83,11.56 5.83,20.51c0,0.47 0,4.15 0,4.61c-0.07,8.8 -2.13,15.54 -6.16,20.26c-4.02,4.71 -9.78,7.06 -17.28,7.06c-0.63,0 -3.74,0 -9.35,0l0,-59.5l10.04,0l0,0c8.69,1.57 14.33,3.92 16.92,7.06zm38.38,56.32c5.18,5.76 12.1,8.63 20.76,8.63c5.66,0 10.66,-1.31 14.97,-3.92c4.31,-2.61 7.65,-6.27 9.97,-11.05c2.32,-4.79 3.48,-10.15 3.48,-16.2c-0.01,-0.32 -0.07,-2.9 -0.08,-3.23c-0.4,-8.8 -3.19,-15.87 -8.33,-21.16c-5.15,-5.29 -11.85,-7.97 -20.12,-7.97c-5.58,0 -10.54,1.3 -14.82,3.87c-4.31,2.58 -7.64,6.27 -10.04,11.09c-2.39,4.82 -3.55,10.22 -3.55,16.24c0,0.04 0,0.27 0,0.69l-0.03,0c1.74,11.5 4.33,19.17 7.79,23.01zm20.62,-43.89c4.56,0 8.19,1.82 10.83,5.44c2.65,3.62 3.99,8.52 3.99,14.71c0,7 -1.3,12.29 -3.88,15.91c-2.57,3.63 -6.19,5.44 -10.83,5.44c-4.64,0 -8.27,-1.78 -10.88,-5.37c-2.6,-3.58 -3.91,-8.51 -3.91,-14.82c0.04,-7.03 1.34,-12.36 3.99,-15.94c0,0 0,0 0,0c4.13,-3.58 7.69,-5.37 10.69,-5.37zm51.39,21.78c0,-0.22 0,-1.99 0,-2.21c0.03,-6.56 1.27,-11.45 3.69,-14.67c2.43,-3.23 5.84,-4.86 10.3,-4.86c3.47,0 6.34,1.12 8.58,3.41c2.25,2.24 3.45,5.14 3.59,8.66c1.3,0 11.68,0 12.98,0c-0.22,-6.92 -2.65,-12.51 -7.22,-16.75c-4.56,-4.24 -10.51,-6.37 -17.79,-6.37c-8.62,0 -15.4,2.79 -20.37,8.4c-4.96,5.62 -7.46,13.09 -7.46,22.4c0,0.14 0,1.27 0,1.41c0,9.79 2.5,17.44 7.54,22.98c5.03,5.54 11.81,8.34 20.36,8.34c4.42,0 8.52,-0.98 12.36,-2.9c3.81,-1.92 6.85,-4.53 9.06,-7.83c2.21,-3.3 3.41,-6.85 3.55,-10.69c-1.3,0 -11.67,0 -12.97,0c-0.15,2.93 -1.38,5.4 -3.63,7.43c-2.24,1.99 -5.11,3 -8.55,3c-4.56,0 -8.04,-1.63 -10.44,-4.89c0,0 0,0 0,0c-2.39,-5.48 -3.58,-10.44 -3.58,-14.86zm102.01,-52.83l0,34.31l-36.85,0l0,-34.31l-14.32,0l0,82.44l14.32,0l0,-36.56l36.85,0l0,36.56l14.28,0l0,-82.44l0,0l-14.28,0z"/>
  <path id="b1lDZmz6D7" d="m594.7,313.95c-2.82,-6.09 -6.85,-10.69 -12.03,-13.92c-5.18,-3.22 -11.2,-4.85 -17.97,-4.85c-6.67,0 -12.61,1.63 -17.8,4.89c-5.18,3.26 -9.2,7.97 -12.06,14.13c-2.87,6.16 -4.28,13.27 -4.28,21.31c0,0.46 0,4.18 0,4.64c0.04,7.9 1.49,14.86 4.35,20.91c2.86,6.05 6.88,10.69 12.1,13.95c5.22,3.26 11.16,4.89 17.8,4.89c2.64,0 5.11,-0.25 7.43,-0.72c1.16,0.93 7.01,5.55 17.54,13.88l9.27,-8.37c-8.5,-6.63 -13.22,-10.32 -14.17,-11.05c4.46,-3.37 7.9,-7.91 10.4,-13.63c2.47,-5.73 3.7,-12.5 3.7,-20.3c0,-0.3 0,-1.84 0,-4.6l0.04,0c-0.99,-10.05 -2.43,-17.1 -4.32,-21.16zm-15.18,46.93c-3.41,4.82 -8.3,7.25 -14.68,7.25c-6.3,0 -11.2,-2.5 -14.67,-7.54c-3.48,-5.04 -5.26,-12 -5.26,-20.91c0,-0.48 0,-4.34 0,-4.82c0.07,-8.84 1.85,-15.69 5.36,-20.51c3.48,-4.86 8.3,-7.29 14.46,-7.29c6.35,0 11.24,2.39 14.72,7.18c3.48,4.78 5.22,11.85 5.22,21.13c0,0.29 0,1.74 0,4.34l-0.04,0c-1.14,10.9 -2.84,17.96 -5.11,21.17z"/>
 </defs>
 <g>
  <title>background</title>
  <rect fill="none" id="canvas_background" height="192" width="572" y="-1" x="-1"/>
 </g>
 <g>
  <title>Layer 1</title>
  <g id="svg_1">
   <g id="svg_2">
    <g id="svg_3">
     <use x="-31.860001" y="-234.839996" id="svg_4" fill="#2e3842" xlink:href="#c1jVq47Z2B"/>
     <g id="svg_5">
      <use x="-31.860001" y="-234.839996" id="svg_6" stroke-opacity="0" stroke="#000000" fill-opacity="0" xlink:href="#c1jVq47Z2B"/>
     </g>
    </g>
    <g id="svg_7">
     <use x="-31.860001" y="-234.839996" id="svg_8" fill="#e40051" xlink:href="#cz6gR2dP2"/>
     <g id="svg_9">
      <use x="-31.860001" y="-234.839996" id="svg_10" stroke-opacity="0" stroke="#000000" fill-opacity="0" xlink:href="#cz6gR2dP2"/>
     </g>
    </g>
    <g id="svg_11">
     <use x="-31.860001" y="-234.839996" id="svg_12" fill="#ffffff" xlink:href="#cwNlAa1IF"/>
     <g id="svg_13">
      <use x="-31.860001" y="-234.839996" id="svg_14" stroke-opacity="0" stroke="#000000" fill-opacity="0" xlink:href="#cwNlAa1IF"/>
     </g>
    </g>
    <g id="svg_15">
     <use stroke="null" x="-32.109897" y="-234.839996" id="svg_16" fill="#e40051" xlink:href="#c2PmE0TJbQ"/>
     <use transform="rotate(180 58.025203704833984,175.760009765625) " stroke="null" x="-32.359794" y="-234.839996" id="svg_27" fill="#e40051" xlink:href="#c2PmE0TJbQ"/>
    </g>
    <g id="svg_19">
     <use x="-31.860001" y="-234.839996" id="svg_20" fill="#ffffff" xlink:href="#a1zXwcAcxx"/>
     <g id="svg_21">
      <use x="-31.860001" y="-234.839996" id="svg_22" stroke-opacity="0" stroke="#000000" fill-opacity="0" xlink:href="#a1zXwcAcxx"/>
     </g>
    </g>
    <g id="svg_23">
     <use x="-31.860001" y="-234.839996" id="svg_24" fill="#ffffff" xlink:href="#b1lDZmz6D7"/>
     <g id="svg_25">
      <use x="-31.860001" y="-234.839996" id="svg_26" stroke-opacity="0" stroke="#000000" fill-opacity="0" xlink:href="#b1lDZmz6D7"/>
     </g>
    </g>
   </g>
  </g>
 </g>
</svg>