<svg width="500" height="500" xmlns="http://www.w3.org/2000/svg">
 <style type="text/css">.st0{fill:#2E3842;}
	.st1{fill:#E40051;}</style>

 <g>
  <title>background</title>
  <rect fill="none" id="canvas_background" height="502" width="502" y="-1" x="-1"/>
 </g>
 <g>
  <title>Layer 1</title>
  <g stroke="null" id="svg_1">
   <path stroke="null" id="svg_2" d="m264.534058,400.601454c0.100469,0.385101 0.200937,0.673927 0.200937,1.059028c0.502343,1.925506 1.105156,3.851011 2.009374,5.969068c10.549212,25.224124 32.95373,42.553675 60.080276,47.945091l76.959016,0c39.584663,0 71.734644,-30.808091 71.734644,-68.740552l0,-294.313541c0,-37.932462 -32.14998,-68.740552 -71.734644,-68.740552l-307.233251,0c-39.584663,0 -71.734644,30.808091 -71.734644,68.740552l0,294.313541c0,37.932462 32.14998,68.740552 71.734644,68.740552l47.421221,0c-0.200937,16.174248 -0.301406,24.165096 -0.301406,23.87627l-47.119815,0c-53.248405,0 -96.55041,-41.494647 -96.55041,-92.520547l0,-294.409816c0,-51.0259 43.302005,-92.520547 96.55041,-92.520547l307.132782,0c53.248405,0 96.55041,41.494647 96.55041,92.520547l0,294.313541c0,51.0259 -43.302005,92.520547 -96.55041,92.520547l-57.46809,-0.288826c-47.220284,0.866478 -88.11104,-25.031574 -100.36822,-68.644277c-0.703281,-2.599433 -1.607499,-5.006315 -2.511717,-7.413197l-2.813123,-2.503157c-6.630933,-5.969068 -13.261867,-11.938135 -19.993269,-17.714652c-8.941713,-7.702023 -17.883427,-15.30777 -26.925609,-22.913517c-4.420622,-3.658461 -8.841245,-7.316922 -13.261867,-10.975382c-7.133277,-5.969068 -14.367023,-11.938135 -21.399831,-18.003478c-11.654368,-10.012629 -20.395144,-17.810927 -28.432639,-25.416675c-9.745463,-9.146152 -18.084364,-19.062506 -24.815766,-29.460237c-9.444057,-14.537568 -15.371709,-30.808091 -17.682489,-48.330192c-0.602812,-4.717489 -0.904218,-9.434978 -1.205624,-13.959916c-0.100469,-1.82923 -0.200937,-3.658461 -0.401875,-5.583966c-0.703281,-9.049877 0.100469,-18.292304 2.31078,-27.438456c3.415935,-13.959916 9.9464,-26.379428 19.490926,-36.777158c13.161398,-14.441293 29.638263,-23.587444 49.02872,-27.534731l0,0.192551c2.612186,-0.577652 5.425309,-1.155303 8.137964,-1.540405c16.577334,-2.214332 32.350918,0.385101 48.727314,8.087124c3.616873,1.732955 7.535152,2.888259 11.654368,4.043562c2.210311,0.673927 4.521091,1.347854 6.731402,2.118056c7.836558,2.695708 19.591394,6.73927 17.983895,18.869956c-0.904218,6.546719 -7.334214,13.285989 -13.06093,16.270523c-9.042182,4.717489 -20.093738,-0.192551 -25.31811,-11.360483c-5.726715,-12.130686 -14.969835,-18.484854 -28.432639,-19.447607c-1.707968,-0.096275 -3.415935,-0.192551 -5.123903,-0.192551c-6.12859,0 -21.098425,1.059028 -33.857948,9.242427l0,0.288826c-7.334214,3.658461 -13.864679,8.5685 -19.691863,15.018944c-7.133277,7.798298 -12.056243,17.040725 -14.56796,27.631006c-1.707968,7.028096 -2.31078,14.152467 -1.808436,20.988012c0.100469,1.925506 0.301406,3.851011 0.401875,5.776517c0.301406,4.428663 0.502343,8.472225 1.105156,12.612062c1.908905,14.441293 6.731402,27.823557 14.467491,39.665417c5.827184,8.857326 12.960461,17.425826 21.500299,25.51295c7.736089,7.316922 16.275928,14.922669 27.628889,24.646473c6.93234,5.969068 14.065616,11.84186 21.098425,17.714652c4.420622,3.658461 8.841245,7.413197 13.362336,11.071658c9.142651,7.605747 18.184833,15.30777 27.227015,23.106068c5.726715,5.006315 11.453431,10.012629 17.079677,15.115219c4.320154,-3.851011 8.640307,-7.702023 12.960461,-11.553034c5.324841,-4.717489 10.75015,-9.338702 16.175459,-13.959916c7.233746,-6.161618 14.467491,-12.130686 21.701237,-18.196029l9.444057,-7.798298c5.626247,-4.621214 11.152024,-9.242427 16.677802,-13.959916l1.808436,-1.540405c7.535152,-6.354169 15.271241,-12.997163 22.404518,-19.736433c5.324841,-4.910039 10.75015,-10.590281 16.677802,-17.233276c9.142651,-10.301455 15.773584,-21.469388 19.792332,-33.311248c4.62156,-13.574815 6.630933,-28.593759 6.12859,-46.019585c-0.200937,-7.316922 -1.707968,-14.441293 -4.420622,-21.180562c-4.521091,-11.264208 -11.252493,-20.121534 -20.194206,-27.053355l0,0c-13.76421,-15.211495 -35.063572,-16.751899 -42.799662,-16.751899c-1.707968,0 -3.415935,0.096275 -5.123903,0.192551c-13.462804,0.962753 -22.806392,7.316922 -28.432639,19.447607c-5.224372,11.167933 -16.275928,16.077972 -25.31811,11.360483c-5.626247,-2.984534 -12.156711,-9.723804 -13.06093,-16.270523c-1.607499,-12.130686 10.147338,-16.174248 17.983895,-18.869956c2.210311,-0.770202 4.420622,-1.444129 6.731402,-2.118056c4.119216,-1.251579 8.037495,-2.406882 11.654368,-4.043562c16.376396,-7.798298 32.049512,-10.397731 48.727314,-8.087124c10.147338,1.347854 19.289988,4.332388 27.327483,8.5685c20.395144,9.723804 34.963104,25.127849 43.402474,45.92331c3.616873,8.953601 5.626247,18.58113 5.927653,28.304933c0.602812,19.832708 -1.707968,37.35481 -7.233746,53.240232c-4.922966,14.441293 -12.960461,28.112383 -24.012017,40.531894c-6.329527,7.220646 -12.25718,13.285989 -18.084364,18.77368c-7.535152,7.028096 -15.472178,13.863641 -23.208267,20.41036l-1.808436,1.540405c-5.626247,4.813764 -11.252493,9.531253 -16.979208,14.152467l-9.343588,7.798298c-7.233746,6.065343 -14.367023,12.03441 -21.600768,18.099753c-5.324841,4.524938 -10.649681,9.146152 -15.874053,13.67109c-5.324841,4.910039 -10.649681,9.627528 -15.974522,14.441293l0,0z" class="st0"/>
   <path stroke="null" id="svg_3" d="m162.256933,499.668721c-19.18952,0 -34.661698,-14.633843 -34.661698,-32.733596s15.472178,-32.733596 34.661698,-32.733596s34.661698,14.633843 34.661698,32.733596s-15.572647,32.733596 -34.661698,32.733596l0,0z" class="st1"/>
  </g>
 </g>
</svg>