<?xml version="1.0" encoding="utf-8"?>
<!-- Generator: Adobe Illustrator 21.0.0, SVG Export Plug-In . SVG Version: 6.00 Build 0)  -->
<svg version="1.1" id="Layer_1" xmlns="http://www.w3.org/2000/svg" xmlns:xlink="http://www.w3.org/1999/xlink" x="0px" y="0px"
	 viewBox="0 0 1766 712" style="enable-background:new 0 0 1766 712;" xml:space="preserve">
<style type="text/css">
	.st0{fill:#2E3842;}
	.st1{fill:#E40051;}
</style>
<g>
	<path class="st0" d="M351.2,537.1c0.1,0.4,0.2,0.7,0.2,1.1c0.5,2,1.1,4,2,6.2c10.5,26.2,32.8,44.2,59.8,49.8h76.6
		c39.4,0,71.4-32,71.4-71.4V217.1c0-39.4-32-71.4-71.4-71.4H184c-39.4,0-71.4,32-71.4,71.4v305.7c0,39.4,32,71.4,71.4,71.4h47.2
		c-0.2,16.8-0.3,25.1-0.3,24.8H184c-53,0-96.1-43.1-96.1-96.1V217.1c0-53,43.1-96.1,96.1-96.1h305.7c53,0,96.1,43.1,96.1,96.1v305.7
		c0,53-43.1,96.1-96.1,96.1l-57.2-0.3c-47,0.9-87.7-26-99.9-71.3c-0.7-2.7-1.6-5.2-2.5-7.7l-2.8-2.6c-6.6-6.2-13.2-12.4-19.9-18.4
		c-8.9-8-17.8-15.9-26.8-23.8c-4.4-3.8-8.8-7.6-13.2-11.4c-7.1-6.2-14.3-12.4-21.3-18.7c-11.6-10.4-20.3-18.5-28.3-26.4
		c-9.7-9.5-18-19.8-24.7-30.6c-9.4-15.1-15.3-32-17.6-50.2c-0.6-4.9-0.9-9.8-1.2-14.5c-0.1-1.9-0.2-3.8-0.4-5.8
		c-0.7-9.4,0.1-19,2.3-28.5c3.4-14.5,9.9-27.4,19.4-38.2c13.1-15,29.5-24.5,48.8-28.6v0.2c2.6-0.6,5.4-1.2,8.1-1.6
		c16.5-2.3,32.2,0.4,48.5,8.4c3.6,1.8,7.5,3,11.6,4.2c2.2,0.7,4.5,1.4,6.7,2.2c7.8,2.8,19.5,7,17.9,19.6c-0.9,6.8-7.3,13.8-13,16.9
		c-9,4.9-20-0.2-25.2-11.8c-5.7-12.6-14.9-19.2-28.3-20.2c-1.7-0.1-3.4-0.2-5.1-0.2c-6.1,0-21,1.1-33.7,9.6v0.3
		c-7.3,3.8-13.8,8.9-19.6,15.6c-7.1,8.1-12,17.7-14.5,28.7c-1.7,7.3-2.3,14.7-1.8,21.8c0.1,2,0.3,4,0.4,6c0.3,4.6,0.5,8.8,1.1,13.1
		c1.9,15,6.7,28.9,14.4,41.2c5.8,9.2,12.9,18.1,21.4,26.5c7.7,7.6,16.2,15.5,27.5,25.6c6.9,6.2,14,12.3,21,18.4
		c4.4,3.8,8.8,7.7,13.3,11.5c9.1,7.9,18.1,15.9,27.1,24c5.7,5.2,11.4,10.4,17,15.7c4.3-4,8.6-8,12.9-12c5.3-4.9,10.7-9.7,16.1-14.5
		c7.2-6.4,14.4-12.6,21.6-18.9l9.4-8.1c5.6-4.8,11.1-9.6,16.6-14.5l1.8-1.6c7.5-6.6,15.2-13.5,22.3-20.5c5.3-5.1,10.7-11,16.6-17.9
		c9.1-10.7,15.7-22.3,19.7-34.6c4.6-14.1,6.6-29.7,6.1-47.8c-0.2-7.6-1.7-15-4.4-22c-4.5-11.7-11.2-20.9-20.1-28.1l0,0
		c-13.7-15.8-34.9-17.4-42.6-17.4c-1.7,0-3.4,0.1-5.1,0.2c-13.4,1-22.7,7.6-28.3,20.2c-5.2,11.6-16.2,16.7-25.2,11.8
		c-5.6-3.1-12.1-10.1-13-16.9c-1.6-12.6,10.1-16.8,17.9-19.6c2.2-0.8,4.4-1.5,6.7-2.2c4.1-1.3,8-2.5,11.6-4.2
		c16.3-8.1,31.9-10.8,48.5-8.4c10.1,1.4,19.2,4.5,27.2,8.9c20.3,10.1,34.8,26.1,43.2,47.7c3.6,9.3,5.6,19.3,5.9,29.4
		c0.6,20.6-1.7,38.8-7.2,55.3c-4.9,15-12.9,29.2-23.9,42.1c-6.3,7.5-12.2,13.8-18,19.5c-7.5,7.3-15.4,14.4-23.1,21.2l-1.8,1.6
		c-5.6,5-11.2,9.9-16.9,14.7l-9.3,8.1c-7.2,6.3-14.3,12.5-21.5,18.8c-5.3,4.7-10.6,9.5-15.8,14.2
		C361.8,527.2,356.5,532.1,351.2,537.1L351.2,537.1z"/>
	<path class="st1" d="M249.4,640c-19.1,0-34.5-15.2-34.5-34s15.4-34,34.5-34s34.5,15.2,34.5,34S268.4,640,249.4,640L249.4,640z"/>
</g>
<g>
	<path class="st0" d="M351.2,537.1c0.1,0.4,0.2,0.7,0.2,1.1c0.5,2,1.1,4,2,6.2c10.5,26.2,32.8,44.2,59.8,49.8h76.6
		c39.4,0,71.4-32,71.4-71.4V217.1c0-39.4-32-71.4-71.4-71.4H184c-39.4,0-71.4,32-71.4,71.4v305.7c0,39.4,32,71.4,71.4,71.4h47.2
		c-0.2,16.8-0.3,25.1-0.3,24.8H184c-53,0-96.1-43.1-96.1-96.1V217.1c0-53,43.1-96.1,96.1-96.1h305.7c53,0,96.1,43.1,96.1,96.1v305.7
		c0,53-43.1,96.1-96.1,96.1l-57.2-0.3c-47,0.9-87.7-26-99.9-71.3c-0.7-2.7-1.6-5.2-2.5-7.7l-2.8-2.6c-6.6-6.2-13.2-12.4-19.9-18.4
		c-8.9-8-17.8-15.9-26.8-23.8c-4.4-3.8-8.8-7.6-13.2-11.4c-7.1-6.2-14.3-12.4-21.3-18.7c-11.6-10.4-20.3-18.5-28.3-26.4
		c-9.7-9.5-18-19.8-24.7-30.6c-9.4-15.1-15.3-32-17.6-50.2c-0.6-4.9-0.9-9.8-1.2-14.5c-0.1-1.9-0.2-3.8-0.4-5.8
		c-0.7-9.4,0.1-19,2.3-28.5c3.4-14.5,9.9-27.4,19.4-38.2c13.1-15,29.5-24.5,48.8-28.6l0,0.2c2.6-0.6,5.4-1.2,8.1-1.6
		c16.5-2.3,32.2,0.4,48.5,8.4c3.6,1.8,7.5,3,11.6,4.2c2.2,0.7,4.5,1.4,6.7,2.2c7.8,2.8,19.5,7,17.9,19.6c-0.9,6.8-7.3,13.8-13,16.9
		c-9,4.9-20-0.2-25.2-11.8c-5.7-12.6-14.9-19.2-28.3-20.2c-1.7-0.1-3.4-0.2-5.1-0.2c-6.1,0-21,1.1-33.7,9.6v0.3
		c-7.3,3.8-13.8,8.9-19.6,15.6c-7.1,8.1-12,17.7-14.5,28.7c-1.7,7.3-2.3,14.7-1.8,21.8c0.1,2,0.3,4,0.4,6c0.3,4.6,0.5,8.8,1.1,13.1
		c1.9,15,6.7,28.9,14.4,41.2c5.8,9.2,12.9,18.1,21.4,26.5c7.7,7.6,16.2,15.5,27.5,25.6c6.9,6.2,14,12.3,21,18.4
		c4.4,3.8,8.8,7.7,13.3,11.5c9.1,7.9,18.1,15.9,27.1,24c5.7,5.2,11.4,10.4,17,15.7c4.3-4,8.6-8,12.9-12c5.3-4.9,10.7-9.7,16.1-14.5
		c7.2-6.4,14.4-12.6,21.6-18.9l9.4-8.1c5.6-4.8,11.1-9.6,16.6-14.5l1.8-1.6c7.5-6.6,15.2-13.5,22.3-20.5c5.3-5.1,10.7-11,16.6-17.9
		c9.1-10.7,15.7-22.3,19.7-34.6c4.6-14.1,6.6-29.7,6.1-47.8c-0.2-7.6-1.7-15-4.4-22c-4.5-11.7-11.2-20.9-20.1-28.1h0
		c-13.7-15.8-34.9-17.4-42.6-17.4c-1.7,0-3.4,0.1-5.1,0.2c-13.4,1-22.7,7.6-28.3,20.2c-5.2,11.6-16.2,16.7-25.2,11.8
		c-5.6-3.1-12.1-10.1-13-16.9c-1.6-12.6,10.1-16.8,17.9-19.6c2.2-0.8,4.4-1.5,6.7-2.2c4.1-1.3,8-2.5,11.6-4.2
		c16.3-8.1,31.9-10.8,48.5-8.4c10.1,1.4,19.2,4.5,27.2,8.9c20.3,10.1,34.8,26.1,43.2,47.7c3.6,9.3,5.6,19.3,5.9,29.4
		c0.6,20.6-1.7,38.8-7.2,55.3c-4.9,15-12.9,29.2-23.9,42.1c-6.3,7.5-12.2,13.8-18,19.5c-7.5,7.3-15.4,14.4-23.1,21.2l-1.8,1.6
		c-5.6,5-11.2,9.9-16.9,14.7l-9.3,8.1c-7.2,6.3-14.3,12.5-21.5,18.8c-5.3,4.7-10.6,9.5-15.8,14.2
		C361.8,527.2,356.5,532.1,351.2,537.1L351.2,537.1z"/>
	<path class="st1" d="M249.4,640c-19.1,0-34.5-15.2-34.5-34c0-18.8,15.4-34,34.5-34c19.1,0,34.5,15.2,34.5,34
		C283.9,624.8,268.5,640,249.4,640L249.4,640z"/>
	<path class="st0" d="M753.5,515c20.5,0,38.7-4.4,54.6-13.3c15.9-8.9,28.1-21.5,36.7-37.8c8.6-16.4,12.9-35.3,12.9-56.9v-11.4
		c0-21.2-4.3-40.1-12.8-56.6c-8.5-16.5-20.6-29.2-36.2-38.1c-15.6-9-33.4-13.4-53.5-13.4H688V515H753.5L753.5,515z M755.2,319.4
		c20.4,0,36,6.5,46.7,19.5c10.7,13,16.1,31.9,16.1,56.6v12.7c-0.2,24.3-5.9,42.9-17,55.9s-27,19.5-47.7,19.5h-25.8V319.4H755.2
		L755.2,319.4z M886.3,430.8c0,26.5,7.2,47.6,21.5,63.5c14.3,15.9,33.4,23.8,57.3,23.8c15.6,0,29.4-3.6,41.3-10.8
		c11.9-7.2,21.1-17.3,27.5-30.5s9.6-28,9.6-44.7l-0.2-8.9c-1.1-24.3-8.8-43.8-23-58.4s-32.7-22-55.5-22c-15.4,0-29.1,3.6-40.9,10.7
		c-11.9,7.1-21.1,17.3-27.7,30.6s-9.8,28.2-9.8,44.8V430.8L886.3,430.8z M935.2,388c7.3-9.8,17.1-14.8,29.5-14.8
		c12.6,0,22.6,5,29.9,15s11,23.5,11,40.6c0,19.3-3.6,33.9-10.7,43.9c-7.1,10-17.1,15-29.9,15s-22.8-4.9-30-14.8
		s-10.8-23.5-10.8-40.9C924.3,412.6,927.9,397.9,935.2,388L935.2,388z M1116.4,474.3c-6.6-9-9.9-22.7-9.9-41v-6.1
		c0.1-18.1,3.5-31.6,10.2-40.5c6.7-8.9,16.1-13.4,28.4-13.4c9.6,0,17.5,3.1,23.7,9.4c6.2,6.2,9.5,14.2,9.9,23.9h35.8
		c-0.6-19.1-7.3-34.5-19.9-46.2s-29-17.6-49.1-17.6c-23.8,0-42.5,7.7-56.2,23.2s-20.6,36.1-20.6,61.8v3.9c0,27,6.9,48.1,20.8,63.4
		c13.9,15.3,32.6,23,56.2,23c12.2,0,23.5-2.7,34.1-8c10.5-5.3,18.9-12.5,25-21.6c6.1-9.1,9.4-18.9,9.8-29.5h-35.8
		c-0.4,8.1-3.8,14.9-10,20.5c-6.2,5.5-14.1,8.3-23.6,8.3C1132.6,487.8,1123,483.3,1116.4,474.3L1116.4,474.3z M1427.4,287.5H1388
		v94.7h-101.7v-94.7h-39.5V515h39.5V414.1H1388V515h39.4V287.5L1427.4,287.5z"/>
	<path class="st0" d="M1654.9,394.5c-0.1-22.2-4.1-41.6-11.9-58.4s-18.9-29.5-33.2-38.4c-14.3-8.9-30.9-13.4-49.6-13.4
		c-18.4,0-34.8,4.5-49.1,13.5c-14.3,9-25.4,22-33.3,39c-7.9,17-11.8,36.6-11.8,58.8v12.8c0.1,21.8,4.1,41,12,57.7
		c7.9,16.7,19,29.5,33.4,38.5c14.4,9,30.8,13.5,49.1,13.5c7.3,0,14.1-0.7,20.5-2l48.4,38.3l25.6-23.1l-39.1-30.5
		c12.3-9.3,21.8-21.8,28.7-37.6c6.8-15.8,10.2-34.5,10.2-56V394.5L1654.9,394.5z M1615.2,407.2c0,25.6-4.7,45.1-14.1,58.4
		c-9.4,13.3-22.9,20-40.5,20c-17.4,0-30.9-6.9-40.5-20.8c-9.6-13.9-14.5-33.1-14.5-57.7v-13.3c0.2-24.4,5.1-43.3,14.8-56.6
		c9.6-13.4,22.9-20.1,39.9-20.1c17.5,0,31,6.6,40.6,19.8c9.6,13.2,14.4,32.7,14.4,58.3V407.2L1615.2,407.2z"/>
</g>
</svg>
