<svg width="54" height="70" viewBox="0 0 54 70" fill="none" xmlns="http://www.w3.org/2000/svg">
<path d="M47.388 4.29374H41.9787V1.24338C41.9787 0.913617 41.8477 0.597358 41.6145 0.364178C41.3813 0.130999 41.0651 0 40.7353 0C40.4056 0 40.0893 0.130999 39.8561 0.364178C39.6229 0.597358 39.4919 0.913617 39.4919 1.24338V4.29374H14.5255V1.24338C14.5255 0.913617 14.3945 0.597358 14.1613 0.364178C13.9281 0.130999 13.6119 0 13.2821 0C12.9524 0 12.6361 0.130999 12.4029 0.364178C12.1697 0.597358 12.0387 0.913617 12.0387 1.24338V4.29374H6.61201C4.8594 4.29374 3.17849 4.98956 1.93867 6.2283C0.69884 7.46703 0.00154008 9.14733 0 10.8999L0 53.8954C0.00153852 55.6486 0.698653 57.3295 1.93831 58.5691C3.17797 59.8088 4.85887 60.5059 6.61201 60.5074H27.3079C27.2221 60.0123 27.1774 59.5109 27.1743 59.0084C27.1761 58.6783 27.1955 58.3486 27.2324 58.0207H6.61201C5.5184 58.0191 4.47002 57.584 3.69672 56.8107C2.92342 56.0374 2.4883 54.989 2.48677 53.8954V17.9419H51.5132V53.907C51.5117 55.0006 51.0766 56.049 50.3033 56.8223C49.53 57.5956 48.4816 58.0307 47.388 58.0323H45.7147C45.7515 58.3603 45.7709 58.69 45.7728 59.02C45.7697 59.5225 45.725 60.0239 45.6391 60.519H47.3822C49.1363 60.519 50.8187 59.8226 52.0596 58.5828C53.3006 57.343 53.9985 55.6612 54 53.907V10.9116C54.0008 10.0428 53.8303 9.18234 53.4984 8.37947C53.1664 7.57659 52.6795 6.847 52.0654 6.2324C51.4514 5.61781 50.7222 5.13025 49.9196 4.7976C49.1171 4.46495 48.2568 4.29374 47.388 4.29374ZM51.5132 15.4551H2.48677V10.8999C2.48831 9.80686 2.92361 8.75908 3.69707 7.9867C4.47054 7.21433 5.51893 6.7805 6.61201 6.7805H12.0213V8.97095C12.0213 9.30071 12.1523 9.61697 12.3855 9.85015C12.6187 10.0833 12.9349 10.2143 13.2647 10.2143C13.5945 10.2143 13.9107 10.0833 14.1439 9.85015C14.3771 9.61697 14.5081 9.30071 14.5081 8.97095V6.7805H39.5094V8.97095C39.5094 9.30071 39.6404 9.61697 39.8735 9.85015C40.1067 10.0833 40.423 10.2143 40.7527 10.2143C41.0825 10.2143 41.3988 10.0833 41.632 9.85015C41.8651 9.61697 41.9961 9.30071 41.9961 8.97095V6.7805H47.4054C48.4985 6.7805 49.5469 7.21433 50.3204 7.9867C51.0938 8.75908 51.5291 9.80686 51.5307 10.8999L51.5132 15.4551Z" fill="#333333"/>
<path d="M36.4822 69.4726C34.4138 69.4726 32.3917 68.8593 30.6719 67.7101C28.952 66.5609 27.6115 64.9275 26.82 63.0165C26.0284 61.1055 25.8213 59.0027 26.2248 56.9739C26.6284 54.9452 27.6244 53.0817 29.0871 51.6191C30.5497 50.1565 32.4132 49.1604 34.4419 48.7569C36.4706 48.3533 38.5735 48.5604 40.4845 49.352C42.3955 50.1436 44.0289 51.4841 45.178 53.2039C46.3272 54.9238 46.9406 56.9458 46.9406 59.0143C46.9406 61.788 45.8387 64.4481 43.8774 66.4095C41.9161 68.3708 39.256 69.4726 36.4822 69.4726ZM36.4822 50.88C34.8734 50.88 33.3007 51.3571 31.9631 52.2509C30.6254 53.1447 29.5828 54.4151 28.9671 55.9014C28.3515 57.3878 28.1904 59.0233 28.5042 60.6012C28.8181 62.1791 29.5928 63.6285 30.7304 64.7661C31.868 65.9037 33.3174 66.6784 34.8953 66.9923C36.4732 67.3061 38.1087 67.145 39.5951 66.5294C41.0814 65.9137 42.3518 64.8711 43.2456 63.5334C44.1394 62.1958 44.6165 60.6231 44.6165 59.0143C44.6119 56.86 43.7529 54.7954 42.2279 53.2737C40.7029 51.752 38.6366 50.8974 36.4822 50.8974V50.88Z" fill="#333333"/>
<path d="M48.0503 49.898C47.9609 49.8091 47.8549 49.7387 47.7382 49.6909C47.6216 49.643 47.4966 49.6186 47.3705 49.6191C47.2453 49.6188 47.1213 49.6432 47.0056 49.6911C46.8899 49.739 46.7849 49.8093 46.6966 49.898L36.7204 59.8742L32.938 56.0917C32.8486 56.0028 32.7425 55.9324 32.6259 55.8846C32.5092 55.8367 32.3843 55.8123 32.2582 55.8128C32.133 55.8124 32.009 55.8369 31.8933 55.8848C31.7776 55.9326 31.6726 56.003 31.5842 56.0917C31.4051 56.2714 31.3044 56.5148 31.3044 56.7686C31.3044 57.0224 31.4051 57.2658 31.5842 57.4455L36.0232 61.9019C36.1117 61.9905 36.2168 62.0607 36.3324 62.1086C36.4481 62.1565 36.572 62.1812 36.6972 62.1812C36.8224 62.1812 36.9463 62.1565 37.062 62.1086C37.1776 62.0607 37.2827 61.9905 37.3712 61.9019L48.0503 51.2518C48.2295 51.0721 48.3301 50.8287 48.3301 50.5749C48.3301 50.3212 48.2295 50.0777 48.0503 49.898Z" fill="#E20E50"/>
<path d="M46.7431 20.4984H42.3041C41.7136 20.4984 41.235 20.9771 41.235 21.5675V26.0065C41.235 26.5969 41.7136 27.0756 42.3041 27.0756H46.7431C47.3335 27.0756 47.8121 26.5969 47.8121 26.0065V21.5675C47.8121 20.9771 47.3335 20.4984 46.7431 20.4984Z" fill="#333333"/>
<path d="M35.0587 20.4984H30.6197C30.0293 20.4984 29.5507 20.9771 29.5507 21.5675V26.0065C29.5507 26.5969 30.0293 27.0756 30.6197 27.0756H35.0587C35.6492 27.0756 36.1278 26.5969 36.1278 26.0065V21.5675C36.1278 20.9771 35.6492 20.4984 35.0587 20.4984Z" fill="#333333"/>
<path d="M23.3803 20.4984H18.9413C18.3508 20.4984 17.8722 20.9771 17.8722 21.5675V26.0065C17.8722 26.5969 18.3508 27.0756 18.9413 27.0756H23.3803C23.9707 27.0756 24.4493 26.5969 24.4493 26.0065V21.5675C24.4493 20.9771 23.9707 20.4984 23.3803 20.4984Z" fill="#333333"/>
<path d="M11.6959 20.4984H7.25694C6.66651 20.4984 6.18787 20.9771 6.18787 21.5675V26.0065C6.18787 26.5969 6.66651 27.0756 7.25694 27.0756H11.6959C12.2864 27.0756 12.765 26.5969 12.765 26.0065V21.5675C12.765 20.9771 12.2864 20.4984 11.6959 20.4984Z" fill="#333333"/>
<path d="M46.7431 29.8586H42.3041C41.7136 29.8586 41.235 30.3373 41.235 30.9277V35.3667C41.235 35.9571 41.7136 36.4358 42.3041 36.4358H46.7431C47.3335 36.4358 47.8121 35.9571 47.8121 35.3667V30.9277C47.8121 30.3373 47.3335 29.8586 46.7431 29.8586Z" fill="#333333"/>
<path d="M35.0587 29.8586H30.6197C30.0293 29.8586 29.5507 30.3373 29.5507 30.9277V35.3667C29.5507 35.9571 30.0293 36.4358 30.6197 36.4358H35.0587C35.6492 36.4358 36.1278 35.9571 36.1278 35.3667V30.9277C36.1278 30.3373 35.6492 29.8586 35.0587 29.8586Z" fill="#333333"/>
<path d="M23.3803 29.8586H18.9413C18.3508 29.8586 17.8722 30.3373 17.8722 30.9277V35.3667C17.8722 35.9571 18.3508 36.4358 18.9413 36.4358H23.3803C23.9707 36.4358 24.4493 35.9571 24.4493 35.3667V30.9277C24.4493 30.3373 23.9707 29.8586 23.3803 29.8586Z" fill="#333333"/>
<path d="M11.6959 29.8586H7.25694C6.66651 29.8586 6.18787 30.3373 6.18787 30.9277V35.3667C6.18787 35.9571 6.66651 36.4358 7.25694 36.4358H11.6959C12.2864 36.4358 12.765 35.9571 12.765 35.3667V30.9277C12.765 30.3373 12.2864 29.8586 11.6959 29.8586Z" fill="#333333"/>
<path d="M46.7431 39.213H42.3041C41.7136 39.213 41.235 39.6917 41.235 40.2821V44.7211C41.235 45.3115 41.7136 45.7902 42.3041 45.7902H46.7431C47.3335 45.7902 47.8121 45.3115 47.8121 44.7211V40.2821C47.8121 39.6917 47.3335 39.213 46.7431 39.213Z" fill="#333333"/>
<path d="M35.0587 39.213H30.6197C30.0293 39.213 29.5507 39.6917 29.5507 40.2821V44.7211C29.5507 45.3115 30.0293 45.7902 30.6197 45.7902H35.0587C35.6492 45.7902 36.1278 45.3115 36.1278 44.7211V40.2821C36.1278 39.6917 35.6492 39.213 35.0587 39.213Z" fill="#333333"/>
<path d="M23.3803 39.213H18.9413C18.3508 39.213 17.8722 39.6917 17.8722 40.2821V44.7211C17.8722 45.3115 18.3508 45.7902 18.9413 45.7902H23.3803C23.9707 45.7902 24.4493 45.3115 24.4493 44.7211V40.2821C24.4493 39.6917 23.9707 39.213 23.3803 39.213Z" fill="#333333"/>
<path d="M11.6959 39.213H7.25694C6.66651 39.213 6.18787 39.6917 6.18787 40.2821V44.7211C6.18787 45.3115 6.66651 45.7902 7.25694 45.7902H11.6959C12.2864 45.7902 12.765 45.3115 12.765 44.7211V40.2821C12.765 39.6917 12.2864 39.213 11.6959 39.213Z" fill="#333333"/>
<path d="M23.3803 48.5732H18.9413C18.3508 48.5732 17.8722 49.0519 17.8722 49.6423V54.0813C17.8722 54.6717 18.3508 55.1504 18.9413 55.1504H23.3803C23.9707 55.1504 24.4493 54.6717 24.4493 54.0813V49.6423C24.4493 49.0519 23.9707 48.5732 23.3803 48.5732Z" fill="#333333"/>
<path d="M11.6959 48.5732H7.25694C6.66651 48.5732 6.18787 49.0519 6.18787 49.6423V54.0813C6.18787 54.6717 6.66651 55.1504 7.25694 55.1504H11.6959C12.2864 55.1504 12.765 54.6717 12.765 54.0813V49.6423C12.765 49.0519 12.2864 48.5732 11.6959 48.5732Z" fill="#333333"/>
</svg>
