<svg width="55" height="80" viewBox="0 0 55 80" fill="none" xmlns="http://www.w3.org/2000/svg">
<path d="M27.1736 9.23911C26.6485 9.24027 26.1349 9.0857 25.6977 8.79495C25.2604 8.5042 24.9193 8.09033 24.7173 7.60568C24.5153 7.12103 24.4615 6.58736 24.5628 6.07216C24.6641 5.55696 24.9159 5.08337 25.2864 4.71127C25.6568 4.33918 26.1293 4.08529 26.6441 3.98172C27.1588 3.87816 27.6927 3.92955 28.1782 4.12942C28.6638 4.32928 29.0792 4.66863 29.3718 5.10457C29.6645 5.5405 29.8213 6.05343 29.8225 6.57849C29.8225 7.28258 29.5428 7.95783 29.0449 8.4557C28.5471 8.95357 27.8718 9.23327 27.1677 9.23327L27.1736 9.23911ZM27.1736 5.98204C27.0579 5.98204 26.9448 6.01634 26.8487 6.08059C26.7525 6.14484 26.6776 6.23617 26.6333 6.34302C26.5891 6.44987 26.5775 6.56744 26.6 6.68087C26.6226 6.7943 26.6783 6.8985 26.7601 6.98028C26.8419 7.06206 26.946 7.11775 27.0595 7.14031C27.1729 7.16287 27.2905 7.15129 27.3973 7.10703C27.5042 7.06278 27.5955 6.98783 27.6598 6.89166C27.724 6.7955 27.7583 6.68245 27.7583 6.56679C27.7583 6.41171 27.6967 6.26297 27.587 6.15331C27.4774 6.04365 27.3286 5.98204 27.1736 5.98204Z" fill="#333333"/>
<path d="M11.6483 51.9612C11.3754 51.9612 11.1136 51.8527 10.9206 51.6597C10.7276 51.4667 10.6191 51.2049 10.6191 50.932C10.6191 50.659 10.7276 50.3973 10.9206 50.2043C11.1136 50.0113 11.3754 49.9028 11.6483 49.9028H42.687C42.9599 49.9028 43.2217 50.0113 43.4147 50.2043C43.6077 50.3973 43.7161 50.659 43.7161 50.932C43.7161 51.2049 43.6077 51.4667 43.4147 51.6597C43.2217 51.8527 42.9599 51.9612 42.687 51.9612H11.6483Z" fill="#333333"/>
<path d="M11.6483 58.405C11.3754 58.405 11.1136 58.2966 10.9206 58.1036C10.7276 57.9106 10.6191 57.6488 10.6191 57.3758C10.6191 57.1029 10.7276 56.8411 10.9206 56.6481C11.1136 56.4551 11.3754 56.3467 11.6483 56.3467H42.687C42.8221 56.3467 42.956 56.3733 43.0808 56.425C43.2057 56.4767 43.3191 56.5525 43.4147 56.6481C43.5103 56.7437 43.5861 56.8571 43.6378 56.982C43.6895 57.1069 43.7161 57.2407 43.7161 57.3758C43.7161 57.511 43.6895 57.6448 43.6378 57.7697C43.5861 57.8946 43.5103 58.008 43.4147 58.1036C43.3191 58.1991 43.2057 58.2749 43.0808 58.3267C42.956 58.3784 42.8221 58.405 42.687 58.405H11.6483Z" fill="#333333"/>
<path d="M11.6483 64.8432C11.3754 64.8432 11.1136 64.7348 10.9206 64.5418C10.7276 64.3488 10.6191 64.087 10.6191 63.8141C10.6191 63.5411 10.7276 63.2794 10.9206 63.0863C11.1136 62.8933 11.3754 62.7849 11.6483 62.7849H42.687C42.9599 62.7849 43.2217 62.8933 43.4147 63.0863C43.6077 63.2794 43.7161 63.5411 43.7161 63.8141C43.7161 64.087 43.6077 64.3488 43.4147 64.5418C43.2217 64.7348 42.9599 64.8432 42.687 64.8432H11.6483Z" fill="#333333"/>
<path d="M2.1168 80C1.55587 79.9985 1.01835 79.7749 0.621702 79.3783C0.225059 78.9817 0.00154316 78.4441 0 77.8832V10.1747C0.00154316 9.61376 0.225059 9.07624 0.621702 8.67959C1.01835 8.28295 1.55587 8.05944 2.1168 8.05789H12.9172V6.95271C12.9172 6.67976 13.0256 6.41799 13.2186 6.22498C13.4116 6.03197 13.6734 5.92355 13.9464 5.92355H20.3786V5.77736C20.6386 4.16448 21.4648 2.69702 22.709 1.63824C23.9532 0.579456 25.5339 -0.00135436 27.1676 2.37155e-06H27.6939C29.2339 0.110244 30.6902 0.743032 31.8216 1.79364C32.953 2.84425 33.6918 4.24969 33.9157 5.77736V5.92355H40.4006C40.672 5.92355 40.9322 6.03136 41.1242 6.22327C41.3161 6.41518 41.4239 6.67546 41.4239 6.94686V8.05204H52.2243C52.7857 8.05358 53.3239 8.27691 53.7214 8.67339C54.119 9.06986 54.3438 9.60738 54.3469 10.1688V77.8832C54.3454 78.4451 54.121 78.9835 53.7231 79.3804C53.3252 79.7772 52.7862 80 52.2243 80H2.1168ZM2.05833 77.9475H52.2886V10.1162H41.4239V12.4845H49.0607C49.3321 12.4845 49.5924 12.5923 49.7843 12.7842C49.9762 12.9761 50.0841 13.2364 50.0841 13.5078V74.6963C50.0841 74.9682 49.9764 75.2291 49.7847 75.422C49.593 75.6148 49.3327 75.7239 49.0607 75.7255H5.26277C5.12762 75.7255 4.99379 75.6988 4.86893 75.6471C4.74407 75.5954 4.63061 75.5196 4.53504 75.424C4.43948 75.3285 4.36367 75.215 4.31195 75.0901C4.26023 74.9653 4.23361 74.8314 4.23361 74.6963V13.5136C4.23361 13.2407 4.34204 12.9789 4.53504 12.7859C4.72805 12.5929 4.98982 12.4845 5.26277 12.4845H12.9172V10.1162H2.05833V77.9475ZM6.31533 73.6788H48.0316V14.5428H41.4239V16.9578C41.4239 17.2292 41.3161 17.4895 41.1242 17.6814C40.9322 17.8733 40.672 17.9811 40.4006 17.9811H13.9464C13.8115 17.9819 13.6778 17.956 13.5529 17.9049C13.4281 17.8539 13.3146 17.7786 13.219 17.6835C13.1233 17.5884 13.0474 17.4753 12.9956 17.3508C12.9438 17.2263 12.9172 17.0927 12.9172 16.9578V14.5428H6.31533V73.6788ZM14.9755 15.9637H39.3714V7.98187H32.9684C32.6954 7.98187 32.4336 7.87345 32.2406 7.68044C32.0476 7.48743 31.9392 7.22566 31.9392 6.95271V6.82991C31.8959 5.59409 31.3745 4.42333 30.485 3.56437C29.5954 2.70541 28.4071 2.22534 27.1705 2.22534C25.9339 2.22534 24.7457 2.70541 23.8561 3.56437C22.9665 4.42333 22.4452 5.59409 22.4019 6.82991V6.95271C22.4026 7.08709 22.3769 7.22031 22.3262 7.34476C22.2755 7.46921 22.2008 7.58245 22.1063 7.67802C22.0118 7.77359 21.8994 7.84961 21.7756 7.90175C21.6517 7.95388 21.5188 7.98111 21.3844 7.98187H14.9521L14.9755 15.9637Z" fill="#333333"/>
<path d="M27.7465 33.4712C26.4559 33.4712 25.1942 33.0885 24.121 32.3714C23.0478 31.6544 22.2114 30.6352 21.7175 29.4427C21.2235 28.2503 21.0943 26.9382 21.3461 25.6723C21.5979 24.4064 22.2194 23.2436 23.1321 22.3309C24.0447 21.4183 25.2075 20.7968 26.4734 20.545C27.7393 20.2931 29.0514 20.4224 30.2439 20.9163C31.4363 21.4102 32.4555 22.2467 33.1726 23.3198C33.8897 24.393 34.2724 25.6547 34.2724 26.9454C34.2708 28.6757 33.5828 30.3347 32.3593 31.5582C31.1358 32.7816 29.4768 33.4697 27.7465 33.4712ZM27.7465 22.4662C26.8606 22.4662 25.9946 22.7289 25.258 23.2211C24.5214 23.7133 23.9473 24.4128 23.6083 25.2313C23.2693 26.0497 23.1806 26.9504 23.3534 27.8192C23.5262 28.6881 23.9528 29.4862 24.5793 30.1127C25.2057 30.7391 26.0038 31.1657 26.8727 31.3385C27.7416 31.5114 28.6422 31.4227 29.4607 31.0836C30.2791 30.7446 30.9787 30.1705 31.4709 29.4339C31.963 28.6973 32.2258 27.8313 32.2258 26.9454C32.2242 25.7579 31.7518 24.6195 30.9121 23.7798C30.0724 22.9402 28.934 22.4677 27.7465 22.4662Z" fill="#E5014D"/>
<path d="M37.4242 45.061H18.1273C17.492 45.0595 16.8831 44.8064 16.4338 44.3571C15.9845 43.9079 15.7314 43.2989 15.7299 42.6636V41.2894C15.7299 36.7342 23.7 34.7635 27.7641 34.7635C31.8281 34.7635 39.7632 36.7283 39.8041 41.2718V42.6869C39.7965 43.3152 39.5431 43.9156 39.0983 44.3593C38.6534 44.8031 38.0525 45.055 37.4242 45.061ZM27.7465 36.8394C23.817 36.8394 17.759 38.7633 17.759 41.3186V42.6869C17.759 42.78 17.7959 42.8692 17.8617 42.935C17.9275 43.0008 18.0167 43.0378 18.1098 43.0378H37.4242C37.5172 43.0378 37.6065 43.0008 37.6723 42.935C37.7381 42.8692 37.775 42.78 37.775 42.6869V41.2777C37.7399 38.734 31.6702 36.8394 27.7465 36.8394Z" fill="#E5014D"/>
</svg>
