<svg width="55" height="80" viewBox="0 0 55 80" fill="none" xmlns="http://www.w3.org/2000/svg">
<path d="M11.6489 53.6716H42.6894C42.9685 53.6716 43.2363 53.5607 43.4337 53.3633C43.6311 53.1659 43.742 52.8981 43.742 52.619C43.742 52.3398 43.6311 52.0721 43.4337 51.8747C43.2363 51.6773 42.9685 51.5664 42.6894 51.5664H11.6489C11.5122 51.5648 11.3766 51.5902 11.2497 51.6411C11.1228 51.692 11.0072 51.7674 10.9094 51.8629C10.8117 51.9585 10.7337 52.0724 10.68 52.1981C10.6263 52.3238 10.5978 52.4589 10.5963 52.5956V52.6307C10.608 52.905 10.723 53.1648 10.9182 53.3578C11.1135 53.5509 11.3745 53.663 11.6489 53.6716Z" fill="#333333"/>
<path d="M11.6489 60.1043H30.9936C31.1319 60.1043 31.2688 60.0771 31.3965 60.0242C31.5242 59.9713 31.6402 59.8938 31.738 59.796C31.8357 59.6983 31.9132 59.5822 31.9661 59.4545C32.019 59.3268 32.0463 59.1899 32.0463 59.0517C32.0463 58.9135 32.019 58.7766 31.9661 58.6489C31.9132 58.5212 31.8357 58.4051 31.738 58.3074C31.6402 58.2096 31.5242 58.1321 31.3965 58.0792C31.2688 58.0263 31.1319 57.9991 30.9936 57.9991H11.6489C11.5122 57.9975 11.3766 58.0229 11.2497 58.0738C11.1228 58.1247 11.0072 58.2001 10.9094 58.2957C10.8117 58.3913 10.7337 58.5051 10.68 58.6309C10.6263 58.7566 10.5978 58.8916 10.5963 59.0283C10.5992 59.3088 10.7103 59.5773 10.9064 59.7778C11.1026 59.9783 11.3686 60.0953 11.6489 60.1043Z" fill="#333333"/>
<path d="M11.6489 66.5369H42.6894C42.9685 66.5369 43.2363 66.426 43.4337 66.2286C43.6311 66.0312 43.742 65.7635 43.742 65.4843C43.742 65.2052 43.6311 64.9374 43.4337 64.74C43.2363 64.5426 42.9685 64.4317 42.6894 64.4317H11.6489C11.5122 64.4302 11.3766 64.4556 11.2497 64.5064C11.1228 64.5573 11.0072 64.6327 10.9094 64.7283C10.8117 64.8239 10.7337 64.9378 10.68 65.0635C10.6263 65.1892 10.5978 65.3242 10.5963 65.4609C10.5992 65.7414 10.7103 66.0099 10.9064 66.2104C11.1026 66.4109 11.3686 66.5279 11.6489 66.5369Z" fill="#333333"/>
<path d="M11.7717 4.42688H5.26305C4.99008 4.42688 4.7283 4.53532 4.53528 4.72833C4.34226 4.92135 4.23383 5.18314 4.23383 5.4561V74.6363C4.23383 74.9092 4.34226 75.171 4.53528 75.364C4.7283 75.5571 4.99008 75.6655 5.26305 75.6655H49.0635C49.3355 75.6639 49.5957 75.5548 49.7875 75.362C49.9793 75.1691 50.0869 74.9082 50.0869 74.6363V5.4561C50.0877 5.32171 50.0619 5.18848 50.0112 5.06403C49.9605 4.93957 49.8858 4.82632 49.7913 4.73075C49.6968 4.63518 49.5844 4.55915 49.4605 4.50701C49.3367 4.45487 49.2038 4.42765 49.0694 4.42688H11.7717ZM48.0284 6.48533V73.6187H6.31566V6.48533H48.0284Z" fill="#333333"/>
<path d="M52.2272 0H2.11692C1.55596 0.00154325 1.0184 0.225071 0.621738 0.621738C0.225071 1.0184 0.00154325 1.55596 0 2.11692L0 77.8233C0.00154325 78.3843 0.225071 78.9218 0.621738 79.3185C1.0184 79.7151 1.55596 79.9387 2.11692 79.9402H52.2272C52.7892 79.9402 53.3283 79.7174 53.7262 79.3205C54.1241 78.9237 54.3485 78.3853 54.35 77.8233V2.11692C54.3469 1.55542 54.1221 1.01788 53.7245 0.621376C53.3269 0.224874 52.7887 0.00153415 52.2272 0V0ZM52.2916 77.8876H2.05845V2.05845H52.2916V77.8876Z" fill="#333333"/>
<path d="M27.1458 40.6544C27.0194 40.651 26.8954 40.619 26.7832 40.5608L14.2513 34.0171C14.115 33.9469 14.0008 33.8404 13.9213 33.7093C13.8418 33.5782 13.8002 33.4277 13.801 33.2744V21.0524C13.8004 20.8345 13.8842 20.6249 14.0349 20.4676L14.1168 20.3915L14.2045 20.3272L14.2688 20.2921L26.8125 13.994C26.9288 13.9363 27.0569 13.9062 27.1867 13.9062C27.3166 13.9062 27.4447 13.9363 27.561 13.994L40.128 20.2804L40.2391 20.3565L40.3152 20.4266L40.3736 20.4968L40.1807 20.7249L40.4263 20.5728L40.4731 20.6489L40.2274 20.8301L40.5023 20.7249L40.245 20.8886L40.5315 20.8126C40.5359 20.8593 40.5359 20.9063 40.5315 20.9529V33.2744C40.5323 33.4277 40.4907 33.5782 40.4112 33.7093C40.3318 33.8404 40.2175 33.9469 40.0812 34.0171L27.5727 40.5608C27.4539 40.6239 27.3212 40.6561 27.1867 40.6544H27.1458ZM26.3154 38.438V27.7949L15.4793 22.3681V32.7481L26.3154 38.438ZM28.0054 38.438L38.8766 32.7481V22.3681L34.555 24.526V30.0054C34.555 30.2272 34.4669 30.4399 34.3101 30.5967C34.1533 30.7536 33.9406 30.8417 33.7188 30.8417C33.497 30.8417 33.2843 30.7536 33.1275 30.5967C32.9706 30.4399 32.8825 30.2272 32.8825 30.0054V25.3681L28.023 27.7949L28.0054 38.438ZM27.175 26.3505L31.8533 24.0114L21.1868 18.6781L16.5085 21.0173L27.175 26.3505ZM33.7246 23.0757L37.8181 21.0114L27.1867 15.6782L23.064 17.7366L33.7246 23.0757Z" fill="#E20E50"/>
</svg>
