<svg width="55" height="80" viewBox="0 0 55 80" fill="none" xmlns="http://www.w3.org/2000/svg">
<g clip-path="url(#clip0)">
<path d="M27.1733 9.23899C26.648 9.24015 26.1342 9.08543 25.6968 8.79443C25.2595 8.50342 24.9183 8.08921 24.7165 7.60421C24.5146 7.11922 24.4612 6.58525 24.563 6.06989C24.6648 5.55453 24.9172 5.08094 25.2882 4.70908C25.6592 4.33722 26.1323 4.08379 26.6474 3.98088C27.1625 3.87797 27.6966 3.93021 28.1821 4.13097C28.6675 4.33173 29.0825 4.67199 29.3744 5.10869C29.6664 5.5454 29.8222 6.0589 29.8223 6.58421C29.8223 7.28831 29.5426 7.96356 29.0447 8.46143C28.5468 8.95929 27.8716 9.23899 27.1675 9.23899H27.1733ZM27.1733 5.98192C27.0577 5.98192 26.9446 6.01621 26.8484 6.08047C26.7523 6.14472 26.6773 6.23605 26.6331 6.3429C26.5888 6.44975 26.5772 6.56732 26.5998 6.68075C26.6224 6.79418 26.6781 6.89838 26.7598 6.98015C26.8416 7.06193 26.9458 7.11763 27.0592 7.14019C27.1727 7.16275 27.2902 7.15117 27.3971 7.10691C27.5039 7.06265 27.5953 6.98771 27.6595 6.89154C27.7238 6.79538 27.7581 6.68233 27.7581 6.56667C27.7581 6.41159 27.6965 6.26285 27.5868 6.15319C27.4771 6.04353 27.3284 5.98192 27.1733 5.98192Z" fill="#333333"/>
<path d="M11.6483 49.9028C11.3754 49.9028 11.1136 49.7944 10.9206 49.6014C10.7276 49.4084 10.6191 49.1466 10.6191 48.8736C10.6191 48.6007 10.7276 48.3389 10.9206 48.1459C11.1136 47.9529 11.3754 47.8445 11.6483 47.8445H42.687C42.9599 47.8445 43.2217 47.9529 43.4147 48.1459C43.6077 48.3389 43.7161 48.6007 43.7161 48.8736C43.7161 49.1466 43.6077 49.4084 43.4147 49.6014C43.2217 49.7944 42.9599 49.9028 42.687 49.9028H11.6483Z" fill="#333333"/>
<path d="M11.6483 56.3469C11.3754 56.3469 11.1136 56.2385 10.9206 56.0455C10.7276 55.8525 10.6191 55.5907 10.6191 55.3177C10.6191 55.0448 10.7276 54.783 10.9206 54.59C11.1136 54.397 11.3754 54.2886 11.6483 54.2886H42.687C42.9599 54.2886 43.2217 54.397 43.4147 54.59C43.6077 54.783 43.7161 55.0448 43.7161 55.3177C43.7161 55.5907 43.6077 55.8525 43.4147 56.0455C43.2217 56.2385 42.9599 56.3469 42.687 56.3469H11.6483Z" fill="#333333"/>
<path d="M11.6483 62.7849C11.3754 62.7849 11.1136 62.6765 10.9206 62.4835C10.7276 62.2904 10.6191 62.0287 10.6191 61.7557C10.6191 61.4828 10.7276 61.221 10.9206 61.028C11.1136 60.835 11.3754 60.7266 11.6483 60.7266H42.687C42.9599 60.7266 43.2217 60.835 43.4147 61.028C43.6077 61.221 43.7161 61.4828 43.7161 61.7557C43.7161 62.0287 43.6077 62.2904 43.4147 62.4835C43.2217 62.6765 42.9599 62.7849 42.687 62.7849H11.6483Z" fill="#333333"/>
<path d="M27.4075 34.5765C26.8628 34.5765 26.3303 34.415 25.8774 34.1123C25.4244 33.8097 25.0714 33.3795 24.863 32.8763C24.6545 32.373 24.6 31.8192 24.7062 31.285C24.8125 30.7507 25.0748 30.26 25.46 29.8748C25.8452 29.4896 26.3359 29.2273 26.8702 29.121C27.4045 29.0148 27.9582 29.0693 28.4615 29.2778C28.9648 29.4862 29.3949 29.8392 29.6975 30.2922C30.0002 30.7451 30.1617 31.2776 30.1617 31.8223C30.1617 32.5528 29.8715 33.2533 29.355 33.7698C28.8385 34.2863 28.138 34.5765 27.4075 34.5765ZM27.4075 31.1264C27.2332 31.1424 27.0712 31.2229 26.9532 31.3522C26.8352 31.4815 26.7698 31.6502 26.7698 31.8252C26.7698 32.0002 26.8352 32.169 26.9532 32.2982C27.0712 32.4275 27.2332 32.508 27.4075 32.524C27.5046 32.5329 27.6026 32.5214 27.695 32.4904C27.7875 32.4593 27.8725 32.4093 27.9445 32.3435C28.0166 32.2778 28.0741 32.1977 28.1135 32.1085C28.1529 32.0192 28.1732 31.9228 28.1732 31.8252C28.1732 31.7277 28.1529 31.6312 28.1135 31.542C28.0741 31.4527 28.0166 31.3727 27.9445 31.3069C27.8725 31.2412 27.7875 31.1912 27.695 31.1601C27.6026 31.129 27.5046 31.1175 27.4075 31.1264Z" fill="#E5014D"/>
<path d="M2.1168 80C1.55587 79.9985 1.01835 79.7749 0.621702 79.3783C0.225059 78.9817 0.00154316 78.4441 0 77.8832V10.1747C0.00154316 9.61376 0.225059 9.07624 0.621702 8.67959C1.01835 8.28295 1.55587 8.05943 2.1168 8.05789H12.9172V6.95271C12.9172 6.67976 13.0256 6.41798 13.2186 6.22498C13.4116 6.03197 13.6734 5.92354 13.9464 5.92354H20.3786V5.77736C20.6397 4.16498 21.4663 2.6982 22.7102 1.63963C23.9541 0.58106 25.5342 -0.000172838 27.1676 3.85528e-08C27.343 3.85528e-08 27.5185 3.85528e-08 27.6939 3.85528e-08C29.2339 0.110241 30.6902 0.743029 31.8216 1.79364C32.953 2.84424 33.6918 4.24968 33.9157 5.77736V5.92354H40.4006C40.5354 5.92354 40.669 5.9502 40.7935 6.00199C40.9181 6.05379 41.0311 6.12969 41.1262 6.22533C41.2213 6.32097 41.2966 6.43448 41.3477 6.55931C41.3987 6.68414 41.4246 6.81783 41.4239 6.95271V8.05789H52.2243C52.7857 8.05942 53.3239 8.28275 53.7214 8.67923C54.119 9.07571 54.3438 9.61322 54.3469 10.1747V77.8832C54.3454 78.4451 54.121 78.9835 53.7231 79.3804C53.3252 79.7772 52.7862 80 52.2243 80H2.1168ZM2.05833 77.9475H52.2886V10.1162H41.4239V12.4845H49.0607C49.1956 12.4845 49.3292 12.5111 49.4537 12.5629C49.5782 12.6147 49.6913 12.6906 49.7864 12.7863C49.8815 12.8819 49.9568 12.9954 50.0079 13.1202C50.0589 13.2451 50.0848 13.3788 50.0841 13.5136V74.6963C50.0841 74.9682 49.9764 75.2291 49.7847 75.422C49.593 75.6148 49.3327 75.7239 49.0607 75.7255H5.26277C5.12762 75.7255 4.99379 75.6988 4.86893 75.6471C4.74407 75.5954 4.63061 75.5196 4.53504 75.424C4.43948 75.3285 4.36367 75.215 4.31195 75.0901C4.26023 74.9653 4.23361 74.8314 4.23361 74.6963V13.5136C4.23361 13.2407 4.34204 12.9789 4.53504 12.7859C4.72805 12.5929 4.98982 12.4845 5.26277 12.4845H12.9172V10.1162H2.05833V77.9475ZM6.31533 73.6788H48.0316V14.5428H41.4239V16.9578C41.4239 17.2292 41.3161 17.4895 41.1242 17.6814C40.9322 17.8733 40.672 17.9811 40.4006 17.9811H13.9464C13.8115 17.9819 13.6778 17.956 13.5529 17.9049C13.4281 17.8538 13.3146 17.7786 13.219 17.6835C13.1233 17.5884 13.0474 17.4753 12.9956 17.3508C12.9438 17.2262 12.9172 17.0927 12.9172 16.9578V14.5428H6.31533V73.6788ZM14.9755 15.9637H39.3714V7.98187H32.9684C32.6954 7.98187 32.4336 7.87344 32.2406 7.68044C32.0476 7.48743 31.9392 7.22566 31.9392 6.95271V6.82991C31.8959 5.59408 31.3745 4.42332 30.485 3.56437C29.5954 2.70541 28.4071 2.22534 27.1705 2.22534C25.9339 2.22534 24.7457 2.70541 23.8561 3.56437C22.9665 4.42332 22.4452 5.59408 22.4019 6.82991V6.95271C22.4026 7.08758 22.3767 7.22128 22.3257 7.34611C22.2746 7.47094 22.1993 7.58444 22.1042 7.68009C22.0091 7.77573 21.8961 7.85163 21.7715 7.90342C21.647 7.95521 21.5134 7.98187 21.3786 7.98187H14.9463L14.9755 15.9637Z" fill="#333333"/>
<path d="M26.6002 42.3362C26.3283 42.3362 26.0674 42.2285 25.8745 42.0368C25.6817 41.8451 25.5726 41.5848 25.571 41.3129C25.5741 41.1009 25.6419 40.8949 25.7652 40.7225C25.8885 40.5501 26.0615 40.4194 26.2611 40.348L26.378 40.3071V39.81H26.2318C24.9306 39.6158 23.6974 39.1036 22.6414 38.3189L22.5186 38.2312L22.1619 38.5879L22.2146 38.699C22.2824 38.8353 22.3184 38.9853 22.3198 39.1376C22.3198 39.4095 22.2122 39.6704 22.0205 39.8632C21.8287 40.0561 21.5684 40.1652 21.2965 40.1667C21.1614 40.1677 21.0274 40.1412 20.9028 40.089C20.7782 40.0367 20.6655 39.9597 20.5714 39.8627L19.4019 38.7282C19.2101 38.5345 19.1026 38.2729 19.1026 38.0002C19.1026 37.7276 19.2101 37.466 19.4019 37.2722C19.5927 37.0865 19.8491 36.9836 20.1153 36.9857C20.2654 36.9843 20.4136 37.0184 20.548 37.0851L20.6591 37.1319L21.0158 36.7752L20.9223 36.6582C20.1384 35.6018 19.6263 34.3688 19.4311 33.0678V32.9158H18.9283L18.8873 33.0328C18.7865 33.2298 18.6245 33.3889 18.4257 33.4861C18.2268 33.5833 18.0018 33.6134 17.7844 33.5719C17.567 33.5304 17.3689 33.4195 17.2198 33.2559C17.0707 33.0922 16.9788 32.8847 16.9576 32.6644V31.0563C16.9539 30.812 17.0377 30.5744 17.1939 30.3865C17.3501 30.1987 17.5684 30.0729 17.8092 30.0319C18.0501 29.9909 18.2977 30.0375 18.5072 30.1632C18.7167 30.2888 18.8744 30.4853 18.9516 30.7171L18.9926 30.8341H19.4955V30.682C19.6906 29.3811 20.2027 28.1481 20.9866 27.0917L21.0801 26.9747L20.7234 26.618L20.6065 26.6706C20.4706 26.7397 20.3204 26.7757 20.1679 26.7759C19.9639 26.7777 19.764 26.7184 19.5939 26.6058C19.4237 26.4931 19.2912 26.3321 19.2133 26.1435C19.1353 25.9549 19.1155 25.7474 19.1564 25.5475C19.1973 25.3476 19.2971 25.1644 19.4428 25.0216L20.5773 23.8814C20.7485 23.7115 20.9743 23.6075 21.2147 23.5879C21.4552 23.5683 21.6948 23.6342 21.8914 23.7741C22.0879 23.914 22.2287 24.1188 22.2889 24.3524C22.3491 24.5861 22.3249 24.8334 22.2204 25.0509L22.1678 25.162L22.5303 25.5245L22.6531 25.4368C23.7091 24.6521 24.9423 24.1399 26.2435 23.9457H26.3897V23.3902L26.2727 23.3493C26.0453 23.2689 25.8535 23.1107 25.7313 22.9027C25.6092 22.6947 25.5644 22.4501 25.605 22.2123C25.6455 21.9745 25.7688 21.7587 25.9531 21.6029C26.1373 21.4472 26.3706 21.3615 26.6119 21.3611H28.22C28.4617 21.3601 28.696 21.4448 28.8813 21.6001C29.0666 21.7554 29.1909 21.9712 29.2323 22.2094C29.2736 22.4476 29.2293 22.6928 29.1071 22.9014C28.985 23.1101 28.7929 23.2687 28.565 23.3493L28.448 23.3902V23.8931H28.5942C29.8915 24.1049 31.1166 24.6331 32.1612 25.431L32.284 25.5187L32.6407 25.162L32.5939 25.0509C32.493 24.8343 32.471 24.5893 32.5317 24.3582C32.5925 24.1272 32.7322 23.9246 32.9266 23.7858C33.121 23.6469 33.3579 23.5804 33.5962 23.5979C33.8345 23.6154 34.0591 23.7156 34.2312 23.8814L35.3715 25.0216C35.5144 25.1656 35.6115 25.3485 35.6508 25.5474C35.6901 25.7464 35.6697 25.9525 35.5923 26.1399C35.5148 26.3273 35.3837 26.4876 35.2154 26.6008C35.0471 26.7139 34.8492 26.7749 34.6464 26.7759C34.4941 26.7745 34.3442 26.7385 34.2078 26.6706L34.0909 26.618L33.74 26.9747L33.8277 27.0917C34.6106 28.1487 35.1225 29.3814 35.3189 30.682V30.8341H35.8159L35.8568 30.7171C35.9341 30.4853 36.0917 30.2888 36.3013 30.1632C36.5108 30.0375 36.7584 29.9909 36.9992 30.0319C37.2401 30.0729 37.4584 30.1987 37.6146 30.3865C37.7707 30.5744 37.8546 30.812 37.8508 31.0563V32.6644C37.8546 32.9087 37.7707 33.1462 37.6146 33.3341C37.4584 33.522 37.2401 33.6478 36.9992 33.6888C36.7584 33.7297 36.5108 33.6832 36.3013 33.5575C36.0917 33.4318 35.9341 33.2353 35.8568 33.0035L35.8159 32.8866H35.313V33.0386C35.1131 34.3375 34.5993 35.5679 33.8161 36.6231L33.7283 36.7459L34.0909 37.1085L34.202 37.0559C34.3346 36.9898 34.4808 36.9558 34.6289 36.9564C34.8331 36.954 35.0335 37.0124 35.2045 37.1242C35.3755 37.236 35.5093 37.3962 35.589 37.5843C35.6686 37.7725 35.6904 37.98 35.6517 38.1806C35.613 38.3812 35.5154 38.5657 35.3715 38.7107L34.202 39.851C34.0077 40.04 33.748 40.1469 33.4769 40.1492C33.3417 40.1492 33.2079 40.1226 33.0831 40.0709C32.9582 40.0191 32.8447 39.9433 32.7492 39.8478C32.6536 39.7522 32.5778 39.6387 32.5261 39.5139C32.4744 39.389 32.4477 39.2552 32.4477 39.12C32.4492 38.9678 32.4852 38.8178 32.553 38.6815L32.6056 38.5704L32.2431 38.2078L32.1261 38.3014C31.0809 39.0687 29.8647 39.5704 28.5825 39.7633H28.4363V40.2661L28.5533 40.3071C28.7812 40.3876 28.9733 40.5463 29.0954 40.7549C29.2176 40.9635 29.2619 41.2087 29.2206 41.4469C29.1793 41.6851 29.0549 41.901 28.8696 42.0562C28.6843 42.2115 28.45 42.2962 28.2083 42.2952L26.6002 42.3362ZM27.4072 25.6941C26.1951 25.6941 25.0103 26.0535 24.0025 26.7269C22.9947 27.4003 22.2093 28.3574 21.7454 29.4772C21.2816 30.5969 21.1603 31.8291 21.3967 33.0179C21.6332 34.2066 22.2168 35.2986 23.0739 36.1556C23.9309 37.0127 25.0229 37.5963 26.2116 37.8328C27.4004 38.0692 28.6325 37.9479 29.7523 37.484C30.8721 37.0202 31.8292 36.2347 32.5026 35.227C33.176 34.2192 33.5354 33.0344 33.5354 31.8223C33.5323 30.198 32.8856 28.641 31.737 27.4924C30.5885 26.3438 29.0315 25.6972 27.4072 25.6941Z" fill="#E5014D"/>
</g>
<defs>
<clipPath id="clip0">
<rect width="54.3469" height="80" fill="white"/>
</clipPath>
</defs>
</svg>
